{
.appVersion = "3260";
.formatVersion = 3;
DisplayStrings = (
"hello world",
"Zero Handles:
2BDFKNRSXYfgimt

Angled Handles:
!\"'(),-.0123456789:;?ABCEFGHIJKLMNOPQRSTUVWXYZ_abcdefghijklmnopqrsuvwxyz

"
);
customParameters = (
{
name = vendorID;
value = XXXX;
},
{
name = panose;
value = (
0,
0,
0,
0,
0,
0,
0,
0,
0,
0
);
},
{
name = unicodeRanges;
value = (
0,
1,
2,
31
);
},
{
name = codePageRanges;
value = (
"1252",
"1250"
);
},
{
name = fsType;
value = (
);
},
{
name = glyphOrder;
value = (
.notdef,
null,
controlLF,
controlCR,
space,
exclam,
quotedbl,
quotesingle,
parenleft,
parenright,
comma,
hyphen,
period,
zero,
one,
two,
three,
four,
five,
six,
seven,
eight,
nine,
colon,
semicolon,
question,
A,
B,
C,
D,
E,
F,
G,
H,
I,
J,
K,
L,
M,
N,
O,
P,
Q,
R,
S,
T,
U,
V,
W,
X,
Y,
Z,
underscore,
a,
b,
c,
d,
e,
f,
g,
h,
i,
j,
k,
l,
m,
n,
o,
p,
q,
r,
s,
t,
u,
v,
w,
x,
y,
z,
nonbreakingspace,
softhyphen
);
}
);
date = "2022-02-28 22:41:58 +0000";
familyName = Slump;
fontMaster = (
{
customParameters = (
{
name = typoAscender;
value = 900;
},
{
name = typoDescender;
value = -200;
},
{
name = typoLineGap;
value = 0;
},
{
name = winAscent;
value = 793;
},
{
name = winDescent;
value = 256;
},
{
name = hheaAscender;
value = 900;
},
{
name = hheaDescender;
value = -200;
},
{
name = strikeoutPosition;
value = 258;
},
{
name = strikeoutSize;
value = 49;
}
);
id = m01;
metricValues = (
{
pos = 900;
},
{
pos = 700;
},
{
pos = 500;
},
{
},
{
pos = -200;
},
{
}
);
name = Regular;
}
);
glyphs = (
{
glyphname = exclam;
kernLeft = exclam;
layers = (
{
layerId = m01;
shapes = (
{
closed = 1;
nodes = (
(362,16,o),
(417,62,o),
(447,119,cs),
(462,148,o),
(464,191,o),
(437,210,cs),
(416,225,o),
(387,228,o),
(361,230,cs),
(333,232,o),
(305,233,o),
(277,229,cs),
(251,226,o),
(226,216,o),
(204,202,cs),
(175,183,o),
(151,155,o),
(133,125,cs),
(126,113,o),
(117,91,o),
(126,80,cs),
(135,70,o),
(156,77,o),
(168,83,cs),
(171,85,o),
(175,87,o),
(178,87,cs),
(223,90,o),
(270,90,o),
(313,77,c),
(312,77,o),
(313,75,o),
(312,75,c),
(260,49,o),
(192,40,o),
(138,61,cs),
(122,67,o),
(106,78,o),
(98,93,cs),
(80,127,o),
(97,191,o),
(122,220,cs),
(133,233,o),
(148,242,o),
(164,248,cs),
(208,265,o),
(256,270,o),
(303,272,cs),
(311,272,o),
(338,275,o),
(345,270,cs),
(350,267,o),
(355,267,o),
(360,269,cs),
(377,276,o),
(392,290,o),
(401,306,cs),
(404,312,o),
(408,322,o),
(404,327,cs),
(396,335,o),
(367,335,o),
(356,335,cs),
(322,335,o),
(288,333,o),
(255,327,cs),
(247,326,o),
(260,334,o),
(266,340,cs),
(288,362,o),
(311,394,o),
(307,425,cs),
(304,446,o),
(285,578,o),
(281,599,cs),
(278,620,o),
(252,747,o),
(248,768,cs),
(245,784,o),
(228,787,o),
(213,781,cs),
(172,763,o),
(121,712,o),
(126,667,cs),
(129,645,o),
(143,510,o),
(146,488,cs),
(149,466,o),
(171,336,o),
(174,314,c),
(175,311,o),
(181,305,o),
(177,304,c),
(121,279,o),
(75,227,o),
(50,171,cs),
(32,132,o),
(24,83,o),
(39,43,cs),
(44,29,o),
(52,17,o),
(61,6,cs),
(71,-6,o),
(113,-25,o),
(127,-28,cs),
(184,-44,o),
(251,-38,o),
(305,-12,cs)
);
}
);
width = 485;
}
);
note = exclam;
unicode = 33;
},
{
glyphname = quotedbl;
layers = (
{
layerId = m01;
shapes = (
{
closed = 1;
nodes = (
(343,409,o),
(356,427,o),
(357,447,cs),
(358,466,o),
(366,577,o),
(366,596,cs),
(366,609,o),
(363,682,o),
(363,694,cs),
(362,710,o),
(365,738,o),
(350,742,cs),
(328,749,o),
(291,720,o),
(275,703,cs),
(256,684,o),
(238,659,o),
(236,631,cs),
(233,590,o),
(230,549,o),
(227,508,cs),
(225,492,o),
(228,404,o),
(229,388,cs),
(229,370,o),
(225,342,o),
(243,339,cs),
(270,334,o),
(314,372,o),
(331,394,cs)
);
},
{
closed = 1;
nodes = (
(122,370,o),
(167,413,o),
(165,446,cs),
(163,471,o),
(154,631,o),
(152,657,cs),
(152,663,o),
(145,669,o),
(139,670,c),
(116,678,o),
(82,647,o),
(66,629,cs),
(57,618,o),
(37,586,o),
(38,572,cs),
(40,546,o),
(52,387,o),
(54,361,cs),
(55,344,o),
(77,347,o),
(93,355,cs)
);
}
);
width = 405;
}
);
note = quotedbl;
unicode = (34,171,187,8220,8221,8222);
},
{
glyphname = quotesingle;
layers = (
{
layerId = m01;
shapes = (
{
closed = 1;
nodes = (
(149,370,o),
(171,387,o),
(190,406,cs),
(204,422,o),
(219,438,o),
(227,458,cs),
(233,471,o),
(237,487,o),
(233,500,cs),
(218,550,o),
(204,600,o),
(189,650,cs),
(188,654,o),
(184,666,o),
(182,668,cs),
(175,675,o),
(162,674,o),
(153,672,c),
(149,685,o),
(133,682,o),
(121,677,cs),
(89,663,o),
(48,621,o),
(50,587,c),
(43,574,o),
(35,561,o),
(33,547,cs),
(32,539,o),
(34,531,o),
(37,523,cs),
(53,474,o),
(70,425,o),
(86,375,cs),
(92,359,o),
(108,356,o),
(124,362,cs)
);
}
);
width = 267;
}
);
note = quotesingle;
unicode = (39,8216,8217,8218,8249,8250);
},
{
glyphname = parenleft;
layers = (
{
layerId = m01;
shapes = (
{
closed = 1;
nodes = (
(345,19,o),
(362,40,o),
(376,63,cs),
(384,76,o),
(393,100,o),
(382,112,cs),
(373,121,o),
(337,124,o),
(323,125,cs),
(302,127,o),
(196,146,o),
(175,152,cs),
(167,154,o),
(140,161,o),
(135,168,cs),
(103,206,o),
(120,296,o),
(142,340,cs),
(168,392,o),
(210,436,o),
(251,477,cs),
(267,493,o),
(375,586,o),
(391,603,cs),
(406,618,o),
(427,642,o),
(408,653,cs),
(397,659,o),
(379,643,o),
(369,635,cs),
(277,553,o),
(179,472,o),
(110,369,cs),
(75,317,o),
(51,255,o),
(41,192,cs),
(36,162,o),
(32,131,o),
(37,100,cs),
(39,87,o),
(53,51,o),
(64,43,cs),
(83,29,o),
(104,17,o),
(126,8,cs),
(153,-3,o),
(182,-9,o),
(208,-20,cs),
(224,-26,o),
(240,-28,o),
(257,-28,cs),
(281,-27,o),
(304,-12,o),
(324,3,cs)
);
}
);
width = 440;
}
);
note = parenleft;
unicode = 40;
},
{
glyphname = parenright;
layers = (
{
layerId = m01;
shapes = (
{
closed = 1;
nodes = (
(224,17,o),
(239,28,o),
(254,39,cs),
(296,71,o),
(422,237,o),
(449,282,cs),
(474,323,o),
(498,366,o),
(506,413,cs),
(508,421,o),
(508,453,o),
(506,461,cs),
(499,491,o),
(463,535,o),
(432,540,cs),
(427,541,o),
(421,540,o),
(416,543,cs),
(368,568,o),
(320,595,o),
(270,613,cs),
(239,624,o),
(121,669,o),
(89,667,c),
(84,666,o),
(79,664,o),
(75,662,cs),
(51,652,o),
(14,616,o),
(12,590,cs),
(12,586,o),
(13,581,o),
(16,578,cs),
(18,576,o),
(29,570,o),
(31,569,cs),
(54,555,o),
(193,483,o),
(217,470,cs),
(238,459,o),
(258,445,o),
(276,430,cs),
(284,423,o),
(296,418,o),
(297,408,cs),
(299,400,o),
(319,374,o),
(322,367,c),
(332,350,o),
(336,324,o),
(332,305,cs),
(327,278,o),
(310,254,o),
(295,231,cs),
(269,191,o),
(240,155,o),
(213,117,cs),
(194,92,o),
(155,43,o),
(170,15,cs),
(176,5,o),
(194,8,o),
(206,11,cs)
);
}
);
width = 538;
}
);
note = parenright;
unicode = 41;
},
{
glyphname = comma;
layers = (
{
layerId = m01;
shapes = (
{
closed = 1;
nodes = (
(178,-26,o),
(221,17,o),
(240,67,cs),
(241,70,o),
(252,87,o),
(253,90,cs),
(267,123,o),
(275,162,o),
(265,196,cs),
(251,244,o),
(215,283,o),
(185,323,cs),
(180,330,o),
(170,333,o),
(162,333,cs),
(154,332,o),
(146,327,o),
(138,326,cs),
(131,324,o),
(123,326,o),
(116,324,cs),
(88,315,o),
(50,278,o),
(48,249,cs),
(47,237,o),
(37,227,o),
(33,215,cs),
(30,204,o),
(30,191,o),
(36,181,cs),
(53,153,o),
(111,79,o),
(103,47,c),
(103,44,o),
(95,32,o),
(94,29,c),
(86,16,o),
(71,-31,o),
(72,-47,cs),
(73,-73,o),
(109,-67,o),
(132,-54,cs)
);
}
);
width = 302;
}
);
note = comma;
unicode = 44;
},
{
glyphname = hyphen;
layers = (
{
layerId = m01;
shapes = (
{
closed = 1;
nodes = (
(65,278,o),
(72,282,o),
(74,282,c),
(76,283,o),
(87,281,o),
(90,281,c),
(211,305,o),
(333,330,o),
(454,354,cs),
(498,363,o),
(539,390,o),
(569,422,cs),
(584,439,o),
(598,458,o),
(605,479,cs),
(611,495,o),
(611,514,o),
(595,519,cs),
(591,520,o),
(574,522,o),
(570,521,cs),
(524,511,o),
(246,443,o),
(200,432,cs),
(182,428,o),
(165,420,o),
(147,419,cs),
(130,417,o),
(113,409,o),
(99,399,cs),
(70,380,o),
(21,327,o),
(23,292,cs),
(24,274,o),
(46,272,o),
(63,278,c)
);
}
);
width = 631;
}
);
note = hyphen;
unicode = 45;
},
{
glyphname = period;
layers = (
{
layerId = m01;
shapes = (
{
closed = 1;
nodes = (
(198,-8,o),
(249,41,o),
(277,100,cs),
(289,123,o),
(298,150,o),
(298,176,cs),
(297,209,o),
(278,261,o),
(247,272,cs),
(243,273,o),
(227,275,o),
(223,274,cs),
(211,271,o),
(197,275,o),
(185,271,cs),
(168,265,o),
(153,255,o),
(139,245,cs),
(94,211,o),
(55,163,o),
(37,109,cs),
(23,69,o),
(31,21,o),
(46,-20,c),
(48,-23,o),
(54,-39,o),
(57,-42,cs),
(75,-64,o),
(117,-56,o),
(142,-41,cs)
);
}
);
width = 329;
}
);
note = period;
unicode = 46;
},
{
glyphname = zero;
lastChange = "2024-05-30 19:27:22 +0000";
layers = (
{
layerId = m01;
shapes = (
{
closed = 1;
nodes = (
(250,52,o),
(290,74,o),
(325,101,cs),
(388,148,o),
(437,217,o),
(465,291,cs),
(481,331,o),
(491,375,o),
(488,418,cs),
(486,457,o),
(474,499,o),
(449,529,cs),
(425,556,o),
(390,573,o),
(355,578,c),
(328,581,o),
(297,579,o),
(270,571,cs),
(247,563,o),
(227,547,o),
(209,531,c),
(207,527,o),
(204,524,o),
(199,522,cs),
(182,515,o),
(168,499,o),
(156,484,cs),
(128,450,o),
(102,409,o),
(80,369,cs),
(54,324,o),
(33,275,o),
(26,225,cs),
(13,145,o),
(63,71,o),
(140,50,cs),
(162,44,o),
(185,43,o),
(207,46,cs)
);
},
{
closed = 1;
nodes = (
(153,230,o),
(131,264,o),
(131,297,cs),
(131,345,o),
(158,390,o),
(182,431,cs),
(184,435,o),
(192,434,o),
(197,436,cs),
(211,440,o),
(225,440,o),
(239,438,cs),
(325,427,o),
(356,328,o),
(330,245,cs),
(326,231,o),
(313,194,o),
(299,188,cs),
(262,171,o),
(211,184,o),
(180,209,cs)
);
},
{
closed = 1;
nodes = (
(249,276,o),
(264,290,o),
(275,306,cs),
(280,313,o),
(290,333,o),
(287,341,cs),
(282,361,o),
(254,344,o),
(238,331,cs),
(223,319,o),
(210,302,o),
(202,284,cs),
(200,279,o),
(199,269,o),
(203,265,cs),
(209,258,o),
(224,263,o),
(232,267,cs)
);
}
);
width = 514;
}
);
note = zero;
unicode = 48;
},
{
glyphname = one;
lastChange = "2024-05-30 19:26:21 +0000";
layers = (
{
layerId = m01;
shapes = (
{
closed = 1;
nodes = (
(499,-20,o),
(543,4,o),
(556,44,cs),
(573,96,o),
(591,136,o),
(562,143,cs),
(507,157,o),
(453,172,o),
(398,183,c),
(399,182,o),
(396,183,o),
(395,184,c),
(393,188,o),
(393,200,o),
(393,204,c),
(403,276,o),
(408,323,o),
(415,396,cs),
(417,416,o),
(427,523,o),
(427,543,cs),
(426,556,o),
(423,578,o),
(410,581,c),
(405,583,o),
(389,580,o),
(384,578,cs),
(354,565,o),
(326,543,o),
(304,519,cs),
(302,517,o),
(292,502,o),
(290,500,cs),
(270,480,o),
(153,394,o),
(136,372,cs),
(128,361,o),
(117,343,o),
(126,334,cs),
(131,329,o),
(144,333,o),
(151,336,cs),
(163,342,o),
(173,351,o),
(183,359,cs),
(220,388,o),
(257,417,o),
(294,445,c),
(298,449,o),
(305,453,o),
(304,448,cs),
(304,443,o),
(298,417,o),
(298,412,c),
(285,337,o),
(272,289,o),
(261,214,cs),
(260,209,o),
(259,209,o),
(254,210,cs),
(246,211,o),
(203,220,o),
(195,221,cs),
(165,224,o),
(131,228,o),
(104,215,cs),
(74,200,o),
(24,124,o),
(23,89,cs),
(23,84,o),
(25,73,o),
(29,71,cs),
(36,67,o),
(72,50,o),
(80,48,cs),
(148,29,o),
(217,11,o),
(285,-8,cs),
(303,-13,o),
(407,-34,o),
(426,-38,cs),
(437,-40,o),
(449,-41,o),
(459,-37,cs)
);
}
);
width = 595;
}
);
note = one;
unicode = 49;
},
{
glyphname = two;
lastChange = "2024-05-30 19:26:13 +0000";
layers = (
{
layerId = m01;
shapes = (
{
closed = 1;
nodes = (
(471,-40,o),
(501,-6,o),
(517,33,cs),
(522,43,o),
(523,63,o),
(514,70,cs),
(511,73,o),
(510,75,o),
(511,79,cs),
(534,140,o),
(557,201,o),
(581,262,cs),
(584,270,o),
(589,283,o),
(581,288,cs),
(569,294,o),
(548,281,o),
(538,273,cs),
(521,259,o),
(508,241,o),
(500,222,cs),
(483,178,o),
(483,179,o),
(466,135,cs),
(464,131,o),
(464,131,o),
(457,132,cs),
(392,145,o),
(327,159,o),
(262,168,c),
(342,242,o),
(402,279,o),
(455,374,cs),
(489,435,o),
(517,507,o),
(510,577,c),
(509,581,o),
(501,594,o),
(499,598,cs),
(496,603,o),
(491,607,o),
(486,608,c),
(484,609,o),
(476,608,o),
(475,609,c),
(474,609,o),
(469,613,o),
(468,613,c),
(433,636,o),
(365,605,o),
(331,581,cs),
(282,545,o),
(242,497,o),
(204,448,c),
(201,462,o),
(188,536,o),
(183,550,cs),
(171,584,o),
(128,552,o),
(104,524,cs),
(93,512,o),
(81,496,o),
(82,479,cs),
(83,462,o),
(99,369,o),
(102,352,cs),
(104,336,o),
(121,337,o),
(136,343,c),
(136,345,o),
(136,341,o),
(136,339,cs),
(135,318,o),
(163,328,o),
(179,342,cs),
(191,352,o),
(203,365,o),
(208,380,cs),
(215,403,o),
(274,473,o),
(291,491,cs),
(317,519,o),
(359,556,o),
(391,534,c),
(387,526,o),
(371,478,o),
(368,469,cs),
(356,431,o),
(340,394,o),
(322,358,cs),
(285,288,o),
(223,233,o),
(162,181,cs),
(157,177,o),
(129,151,o),
(124,147,cs),
(92,120,o),
(58,88,o),
(44,48,cs),
(40,36,o),
(31,25,o),
(30,12,cs),
(29,3,o),
(34,-5,o),
(43,-6,cs),
(49,-7,o),
(56,-10,o),
(62,-11,cs),
(165,-29,o),
(264,-60,o),
(364,-90,cs),
(389,-97,o),
(417,-81,o),
(438,-65,cs)
);
}
);
width = 618;
}
);
note = two;
unicode = 50;
},
{
glyphname = three;
lastChange = "2024-05-30 19:25:57 +0000";
layers = (
{
layerId = m01;
shapes = (
{
closed = 1;
nodes = (
(395,-33,o),
(514,60,o),
(615,161,cs),
(657,202,o),
(697,247,o),
(727,297,cs),
(748,333,o),
(762,378,o),
(756,419,cs),
(754,439,o),
(746,459,o),
(732,473,cs),
(716,490,o),
(692,501,o),
(668,504,cs),
(600,512,o),
(528,493,o),
(464,466,c),
(474,477,o),
(530,544,o),
(539,556,cs),
(541,559,o),
(544,558,o),
(547,559,cs),
(570,567,o),
(590,586,o),
(601,608,cs),
(606,619,o),
(609,635,o),
(597,635,c),
(592,636,o),
(594,636,o),
(589,635,cs),
(538,626,o),
(487,617,o),
(435,608,cs),
(403,603,o),
(221,564,o),
(189,561,cs),
(182,560,o),
(174,559,o),
(168,556,cs),
(151,548,o),
(124,520,o),
(122,501,cs),
(121,481,o),
(152,491,o),
(172,494,cs),
(264,507,o),
(357,522,o),
(448,540,c),
(424,513,o),
(332,358,o),
(316,326,c),
(312,320,o),
(311,312,o),
(307,306,cs),
(299,293,o),
(286,270,o),
(297,259,cs),
(306,250,o),
(327,261,o),
(339,265,cs),
(386,285,o),
(437,301,o),
(487,302,cs),
(520,302,o),
(579,298,o),
(591,267,cs),
(595,256,o),
(604,231,o),
(596,222,cs),
(574,195,o),
(548,172,o),
(521,150,cs),
(485,119,o),
(444,91,o),
(400,74,cs),
(362,59,o),
(320,37,o),
(297,71,cs),
(280,95,o),
(248,242,o),
(244,272,cs),
(242,281,o),
(229,336,o),
(227,346,cs),
(222,364,o),
(202,369,o),
(185,361,cs),
(137,340,o),
(40,276,o),
(40,223,cs),
(40,212,o),
(39,147,o),
(39,136,cs),
(40,107,o),
(55,-11,o),
(67,-38,cs),
(73,-53,o),
(81,-68,o),
(94,-77,cs),
(110,-88,o),
(131,-93,o),
(151,-94,cs),
(188,-95,o),
(225,-87,o),
(260,-76,cs)
);
}
);
width = 788;
}
);
note = three;
unicode = 51;
},
{
glyphname = four;
lastChange = "2024-05-30 19:25:17 +0000";
layers = (
{
layerId = m01;
shapes = (
{
closed = 1;
nodes = (
(290,-20,o),
(410,51,o),
(413,99,cs),
(414,108,o),
(412,158,o),
(412,167,cs),
(412,220,o),
(414,273,o),
(417,326,c),
(443,329,o),
(466,341,o),
(489,352,cs),
(526,370,o),
(557,401,o),
(578,436,cs),
(588,452,o),
(601,481,o),
(588,494,cs),
(581,501,o),
(557,504,o),
(548,504,cs),
(529,503,o),
(450,477,o),
(433,471,c),
(442,555,o),
(454,638,o),
(457,722,cs),
(458,774,o),
(336,730,o),
(301,690,cs),
(290,677,o),
(279,662,o),
(274,645,cs),
(264,614,o),
(228,440,o),
(222,408,c),
(193,394,o),
(164,382,o),
(136,367,c),
(146,397,o),
(175,560,o),
(181,591,cs),
(182,597,o),
(181,605,o),
(175,607,cs),
(167,609,o),
(151,600,o),
(144,595,cs),
(127,583,o),
(113,565,o),
(108,544,cs),
(88,471,o),
(67,398,o),
(46,325,cs),
(45,322,o),
(44,308,o),
(42,306,cs),
(32,292,o),
(21,277,o),
(20,260,cs),
(20,244,o),
(36,236,o),
(52,240,cs),
(100,251,o),
(147,267,o),
(194,281,cs),
(199,283,o),
(201,284,o),
(200,279,cs),
(184,175,o),
(177,69,o),
(184,-36,cs),
(186,-62,o),
(224,-54,o),
(247,-42,cs)
);
}
);
width = 613;
}
);
note = four;
unicode = 52;
},
{
glyphname = five;
lastChange = "2024-05-30 19:24:35 +0000";
layers = (
{
layerId = m01;
shapes = (
{
closed = 1;
nodes = (
(347,-72,o),
(368,-64,o),
(386,-54,cs),
(454,-18,o),
(504,32,o),
(548,108,cs),
(559,128,o),
(581,149,o),
(589,197,cs),
(597,249,o),
(601,303,o),
(593,356,cs),
(591,366,o),
(580,392,o),
(572,399,cs),
(562,407,o),
(546,405,o),
(534,401,cs),
(528,399,o),
(521,399,o),
(515,399,cs),
(496,399,o),
(477,394,o),
(460,387,cs),
(400,363,o),
(345,326,o),
(292,287,cs),
(282,280,o),
(224,238,o),
(215,230,cs),
(211,227,o),
(210,227,o),
(209,233,c),
(176,348,l),
(149,422,l),
(167,417,o),
(245,417,o),
(262,418,cs),
(546,430,ls),
(567,431,o),
(623,426,o),
(639,412,cs),
(640,411,o),
(644,405,o),
(645,405,c),
(662,390,o),
(695,407,o),
(713,420,cs),
(744,440,o),
(799,548,o),
(799,584,cs),
(799,595,o),
(793,601,o),
(789,609,cs),
(777,634,o),
(748,650,o),
(721,654,cs),
(713,655,o),
(677,658,o),
(669,657,cs),
(386,635,ls),
(363,633,o),
(253,622,o),
(231,625,cs),
(208,628,o),
(184,636,o),
(166,649,c),
(139,677,ls),
(134,682,o),
(125,703,o),
(117,704,cs),
(91,706,o),
(56,672,o),
(44,649,cs),
(37,638,o),
(36,623,o),
(38,610,cs),
(45,574,o),
(57,536,o),
(80,508,cs),
(82,505,o),
(91,450,o),
(92,448,c),
(91,449,o),
(90,446,o),
(90,445,c),
(75,431,o),
(50,406,o),
(61,388,cs),
(64,383,o),
(62,378,o),
(63,373,cs),
(67,361,o),
(85,284,o),
(89,272,cs),
(127,154,ls),
(128,152,o),
(130,144,o),
(132,143,c),
(136,139,o),
(145,142,o),
(148,137,c),
(155,120,o),
(178,130,o),
(193,140,cs),
(231,162,o),
(357,257,o),
(401,259,cs),
(406,259,o),
(403,252,o),
(404,247,cs),
(406,239,o),
(413,233,o),
(415,226,cs),
(424,194,o),
(419,159,o),
(414,126,cs),
(411,99,o),
(406,121,o),
(399,94,c),
(377,84,o),
(357,69,o),
(340,52,cs),
(321,32,o),
(302,9,o),
(294,-18,cs),
(285,-45,o),
(298,-76,o),
(326,-74,cs)
);
}
);
width = 820;
}
);
note = five;
unicode = 53;
},
{
glyphname = six;
layers = (
{
layerId = m01;
shapes = (
{
closed = 1;
nodes = (
(326,-48,o),
(351,-31,o),
(356,-27,cs),
(362,-22,o),
(379,-3,o),
(385,-2,cs),
(429,8,o),
(472,24,o),
(509,49,cs),
(599,112,o),
(674,236,o),
(620,332,cs),
(594,379,o),
(547,420,o),
(496,439,cs),
(473,447,o),
(448,449,o),
(425,447,cs),
(375,444,o),
(326,420,o),
(286,390,cs),
(248,362,o),
(215,323,o),
(200,278,cs),
(197,267,o),
(192,227,o),
(194,217,cs),
(197,199,o),
(229,119,o),
(236,103,c),
(208,109,o),
(180,119,o),
(159,137,cs),
(137,154,o),
(120,180,o),
(114,206,cs),
(108,233,o),
(109,263,o),
(116,290,cs),
(135,359,o),
(176,426,o),
(229,475,cs),
(273,517,o),
(330,546,o),
(388,566,cs),
(403,571,o),
(444,583,o),
(458,577,c),
(459,576,o),
(467,570,o),
(469,569,c),
(477,567,o),
(492,577,o),
(499,582,cs),
(507,589,o),
(515,598,o),
(520,608,cs),
(523,613,o),
(526,623,o),
(522,628,cs),
(502,651,o),
(446,636,o),
(417,626,cs),
(334,599,o),
(257,550,o),
(195,488,cs),
(141,434,o),
(96,368,o),
(65,298,cs),
(44,250,o),
(29,194,o),
(37,142,cs),
(40,124,o),
(46,106,o),
(53,89,cs),
(58,77,o),
(83,42,o),
(93,34,cs),
(141,-1,o),
(204,-14,o),
(263,-14,cs),
(275,-14,o),
(263,-34,o),
(265,-45,cs),
(270,-67,o),
(299,-60,o),
(320,-51,cs)
);
},
{
closed = 1;
nodes = (
(407,230,o),
(389,272,o),
(368,312,c),
(400,312,o),
(453,260,o),
(472,234,cs),
(493,203,o),
(501,166,o),
(494,130,c),
(477,122,o),
(459,117,o),
(441,112,cs),
(437,111,o),
(434,111,o),
(435,115,c),
(436,129,o),
(431,176,o),
(425,189,cs)
);
}
);
width = 672;
}
);
note = six;
unicode = 54;
},
{
glyphname = seven;
layers = (
{
layerId = m01;
shapes = (
{
closed = 1;
nodes = (
(404,-71,o),
(435,-41,o),
(457,-9,cs),
(470,10,o),
(484,36,o),
(478,59,cs),
(477,65,o),
(472,93,o),
(469,98,cs),
(453,133,o),
(436,169,o),
(425,206,c),
(491,203,o),
(557,199,o),
(623,196,cs),
(643,195,o),
(663,214,o),
(671,233,cs),
(674,241,o),
(672,246,o),
(663,246,cs),
(582,252,o),
(501,257,o),
(420,262,c),
(416,263,o),
(413,263,o),
(412,267,c),
(408,304,o),
(410,343,o),
(421,379,cs),
(425,394,o),
(430,410,o),
(438,424,cs),
(469,472,o),
(529,498,o),
(554,549,cs),
(559,559,o),
(564,574,o),
(557,583,cs),
(552,591,o),
(538,593,o),
(528,591,cs),
(519,589,o),
(510,586,o),
(502,582,cs),
(487,574,o),
(420,526,o),
(407,515,cs),
(401,510,o),
(395,504,o),
(388,501,cs),
(349,489,o),
(309,476,o),
(269,466,cs),
(235,458,o),
(201,450,o),
(166,453,cs),
(161,454,o),
(137,458,o),
(132,458,cs),
(115,457,o),
(91,432,o),
(84,416,cs),
(81,409,o),
(80,400,o),
(87,398,cs),
(91,396,o),
(113,393,o),
(118,392,cs),
(187,386,o),
(257,408,o),
(323,427,c),
(290,384,o),
(264,336,o),
(248,284,cs),
(247,279,o),
(246,273,o),
(241,273,cs),
(218,274,o),
(91,283,o),
(68,281,cs),
(65,281,o),
(60,279,o),
(59,281,c),
(54,287,o),
(47,282,o),
(41,278,cs),
(31,271,o),
(18,257,o),
(27,248,cs),
(29,246,o),
(37,240,o),
(40,240,c),
(103,225,o),
(169,225,o),
(234,216,c),
(229,173,o),
(230,128,o),
(239,85,cs),
(246,50,o),
(259,16,o),
(274,-17,cs),
(287,-45,o),
(302,-77,o),
(330,-93,cs),
(338,-97,o),
(360,-90,o),
(369,-86,cs)
);
}
);
width = 690;
}
);
note = seven;
unicode = 55;
},
{
glyphname = eight;
lastChange = "2024-05-30 19:29:49 +0000";
layers = (
{
layerId = m01;
shapes = (
{
closed = 1;
nodes = (
(348,-65,o),
(386,-51,o),
(424,-37,cs),
(475,-18,o),
(526,4,o),
(573,30,cs),
(602,47,o),
(628,69,o),
(648,95,cs),
(655,104,o),
(663,113,o),
(667,123,cs),
(677,141,o),
(686,160,o),
(686,180,cs),
(686,203,o),
(680,215,o),
(664,230,cs),
(636,254,o),
(599,266,o),
(565,277,cs),
(519,290,o),
(473,298,o),
(427,307,cs),
(419,308,o),
(378,315,o),
(371,316,c),
(405,338,o),
(436,361,o),
(466,389,cs),
(488,410,o),
(508,436,o),
(516,465,cs),
(520,478,o),
(529,489,o),
(534,502,cs),
(537,511,o),
(535,535,o),
(533,543,cs),
(525,563,o),
(509,580,o),
(492,593,cs),
(463,613,o),
(425,622,o),
(390,619,cs),
(347,616,o),
(305,595,o),
(271,570,cs),
(229,538,o),
(193,496,o),
(168,450,cs),
(152,422,o),
(142,389,o),
(148,358,cs),
(149,354,o),
(152,350,o),
(156,348,cs),
(157,347,o),
(157,343,o),
(157,341,c),
(162,326,o),
(169,309,o),
(177,296,cs),
(191,274,o),
(215,260,o),
(236,246,c),
(169,186,o),
(100,121,o),
(63,38,cs),
(57,22,o),
(55,2,o),
(56,-16,cs),
(57,-21,o),
(60,-27,o),
(62,-32,cs),
(74,-58,o),
(102,-78,o),
(131,-84,cs),
(188,-98,o),
(250,-89,o),
(307,-75,cs)
);
},
{
closed = 1;
nodes = (
(276,334,o),
(260,353,o),
(257,374,cs),
(256,380,o),
(256,386,o),
(256,391,cs),
(256,394,o),
(260,403,o),
(261,406,cs),
(263,413,o),
(270,437,o),
(277,441,cs),
(287,450,o),
(317,442,o),
(330,439,cs),
(353,432,o),
(377,421,o),
(395,406,cs),
(402,399,o),
(412,392,o),
(422,393,c),
(416,386,o),
(409,381,o),
(402,375,cs),
(387,363,o),
(331,322,o),
(312,319,cs),
(309,318,o),
(298,322,o),
(295,325,c)
);
},
{
closed = 1;
nodes = (
(203,38,o),
(175,64,o),
(171,80,cs),
(167,98,o),
(177,120,o),
(190,134,cs),
(200,146,o),
(267,212,o),
(278,224,c),
(298,214,o),
(422,155,o),
(442,145,cs),
(466,133,o),
(488,115,o),
(506,95,c),
(449,61,o),
(392,32,o),
(320,21,cs),
(286,16,o),
(250,20,o),
(219,33,cs)
);
}
);
width = 762;
}
);
note = eight;
unicode = 56;
},
{
glyphname = nine;
layers = (
{
layerId = m01;
shapes = (
{
closed = 1;
nodes = (
(520,-1,o),
(597,13,o),
(664,46,cs),
(706,67,o),
(745,97,o),
(775,133,cs),
(793,154,o),
(810,178,o),
(819,204,cs),
(830,233,o),
(827,266,o),
(824,297,cs),
(813,386,o),
(784,474,o),
(742,553,cs),
(727,581,o),
(712,612,o),
(685,629,cs),
(667,640,o),
(646,646,o),
(625,649,cs),
(580,654,o),
(531,642,o),
(491,622,cs),
(468,610,o),
(448,594,o),
(427,579,cs),
(396,556,o),
(367,530,o),
(341,502,cs),
(318,477,o),
(297,450,o),
(287,418,cs),
(278,393,o),
(271,365,o),
(275,339,cs),
(286,277,o),
(353,250,o),
(415,259,cs),
(480,269,o),
(540,303,o),
(598,334,c),
(616,285,o),
(632,234,o),
(641,182,c),
(579,173,o),
(517,171,o),
(454,174,cs),
(400,176,o),
(344,182,o),
(293,202,cs),
(271,211,o),
(253,231,o),
(240,252,cs),
(218,287,o),
(216,333,o),
(218,375,cs),
(218,387,o),
(221,438,o),
(218,449,cs),
(211,481,o),
(171,465,o),
(144,447,cs),
(112,426,o),
(83,397,o),
(67,362,cs),
(57,342,o),
(53,319,o),
(48,297,cs),
(36,246,o),
(33,190,o),
(48,140,cs),
(59,102,o),
(82,63,o),
(115,41,cs),
(149,19,o),
(192,9,o),
(232,3,cs),
(303,-7,o),
(374,-8,o),
(445,-4,cs)
);
},
{
closed = 1;
nodes = (
(390,339,o),
(365,352,o),
(352,373,cs),
(344,386,o),
(339,405,o),
(343,420,cs),
(347,433,o),
(358,442,o),
(367,452,cs),
(381,467,o),
(396,484,o),
(415,494,cs),
(435,503,o),
(482,502,o),
(501,490,cs),
(540,464,o),
(562,418,o),
(581,375,c),
(553,361,o),
(525,348,o),
(495,340,cs),
(469,333,o),
(440,328,o),
(414,334,cs)
);
}
);
width = 865;
}
);
note = nine;
unicode = 57;
},
{
glyphname = colon;
kernLeft = colon;
layers = (
{
layerId = m01;
shapes = (
{
closed = 1;
nodes = (
(152,394,o),
(186,416,o),
(214,439,cs),
(245,463,o),
(273,491,o),
(290,526,cs),
(308,561,o),
(313,606,o),
(277,621,cs),
(260,628,o),
(240,623,o),
(224,616,cs),
(213,612,o),
(203,604,o),
(191,601,cs),
(151,593,o),
(117,556,o),
(99,519,cs),
(95,510,o),
(87,503,o),
(82,494,cs),
(70,475,o),
(57,453,o),
(59,430,cs),
(59,425,o),
(64,412,o),
(68,408,c),
(73,405,o),
(80,406,o),
(83,401,c),
(90,393,o),
(104,389,o),
(115,390,cs)
);
},
{
closed = 1;
nodes = (
(131,-10,o),
(146,-1,o),
(159,8,cs),
(202,37,o),
(238,77,o),
(265,122,cs),
(277,142,o),
(290,164,o),
(297,187,cs),
(301,203,o),
(305,236,o),
(292,247,cs),
(277,261,o),
(249,254,o),
(230,246,c),
(234,254,o),
(239,270,o),
(232,276,cs),
(226,282,o),
(212,277,o),
(204,273,cs),
(174,257,o),
(93,163,o),
(73,134,cs),
(37,83,o),
(9,5,o),
(68,-18,cs),
(77,-22,o),
(106,-19,o),
(116,-15,cs)
);
}
);
width = 342;
}
);
note = colon;
unicode = 58;
},
{
glyphname = semicolon;
kernLeft = semicolon;
layers = (
{
layerId = m01;
shapes = (
{
closed = 1;
nodes = (
(155,242,o),
(200,263,o),
(238,294,cs),
(264,315,o),
(287,340,o),
(304,369,cs),
(314,386,o),
(323,405,o),
(324,425,cs),
(327,473,o),
(284,516,o),
(240,497,cs),
(214,486,o),
(190,468,o),
(172,447,cs),
(141,409,o),
(124,362,o),
(103,318,cs),
(93,297,o),
(58,241,o),
(64,218,cs),
(70,201,o),
(94,211,o),
(111,219,cs)
);
},
{
closed = 1;
nodes = (
(100,-26,o),
(193,68,o),
(208,84,cs),
(231,110,o),
(284,165,o),
(274,197,cs),
(268,218,o),
(240,210,o),
(220,200,cs),
(194,185,o),
(173,162,o),
(152,140,cs),
(122,109,o),
(-9,-20,o),
(-28,-58,cs),
(-37,-77,o),
(-44,-103,o),
(-24,-109,cs),
(9,-119,o),
(61,-66,o),
(85,-42,cs)
);
}
);
width = 299;
}
);
note = semicolon;
unicode = 59;
},
{
glyphname = question;
kernLeft = question;
layers = (
{
layerId = m01;
shapes = (
{
closed = 1;
nodes = (
(407,-26,o),
(492,33,o),
(539,112,cs),
(554,137,o),
(559,175,o),
(537,193,cs),
(503,220,o),
(407,206,o),
(365,193,cs),
(329,183,o),
(296,155,o),
(277,122,cs),
(272,112,o),
(265,95,o),
(273,87,cs),
(281,80,o),
(300,88,o),
(310,92,cs),
(317,95,o),
(350,97,o),
(357,98,cs),
(383,99,o),
(415,101,o),
(433,83,c),
(358,43,o),
(256,51,o),
(178,85,cs),
(160,93,o),
(143,107,o),
(136,125,cs),
(131,137,o),
(129,153,o),
(135,165,cs),
(154,201,o),
(262,243,o),
(300,256,cs),
(331,267,o),
(362,278,o),
(394,279,cs),
(398,279,o),
(422,274,o),
(426,274,cs),
(440,274,o),
(459,293,o),
(464,306,cs),
(466,310,o),
(468,316,o),
(464,318,cs),
(446,327,o),
(423,328,o),
(402,325,cs),
(358,319,o),
(317,303,o),
(276,286,cs),
(271,284,o),
(270,283,o),
(274,287,cs),
(287,302,o),
(311,337,o),
(306,357,c),
(306,359,o),
(303,359,o),
(308,362,cs),
(380,406,o),
(453,448,o),
(518,501,cs),
(554,531,o),
(591,570,o),
(600,616,cs),
(601,621,o),
(602,639,o),
(600,644,cs),
(598,650,o),
(587,672,o),
(582,677,cs),
(575,685,o),
(546,693,o),
(536,694,cs),
(468,699,o),
(399,688,o),
(333,673,cs),
(243,653,o),
(155,608,o),
(86,547,cs),
(66,530,o),
(44,511,o),
(36,486,cs),
(33,477,o),
(33,466,o),
(42,463,cs),
(56,459,o),
(87,480,o),
(99,489,cs),
(123,505,o),
(149,520,o),
(176,531,cs),
(218,547,o),
(264,555,o),
(308,561,cs),
(353,567,o),
(398,572,o),
(443,570,cs),
(453,570,o),
(497,565,o),
(507,562,c),
(473,541,o),
(263,431,o),
(229,410,cs),
(215,401,o),
(201,390,o),
(189,378,cs),
(164,353,o),
(132,311,o),
(152,282,cs),
(162,267,o),
(177,254,o),
(194,247,c),
(156,226,o),
(119,200,o),
(94,165,cs),
(78,144,o),
(66,120,o),
(62,94,cs),
(58,69,o),
(67,41,o),
(84,22,cs),
(93,11,o),
(105,2,o),
(117,-5,cs),
(175,-39,o),
(250,-57,o),
(316,-44,cs)
);
}
);
width = 633;
}
);
note = question;
unicode = 63;
},
{
glyphname = A;
layers = (
{
layerId = m01;
shapes = (
{
closed = 1;
nodes = (
(647,-35,o),
(682,-5,o),
(713,28,cs),
(722,37,o),
(744,65,o),
(745,78,cs),
(745,99,o),
(740,121,o),
(729,139,cs),
(687,216,o),
(644,293,o),
(604,372,cs),
(559,463,o),
(513,555,o),
(464,646,cs),
(461,653,o),
(454,658,o),
(448,663,cs),
(438,673,o),
(417,661,o),
(405,654,cs),
(379,638,o),
(318,591,o),
(313,561,c),
(313,558,o),
(315,536,o),
(315,532,cs),
(314,520,o),
(290,466,o),
(287,455,cs),
(264,381,o),
(242,308,o),
(219,235,c),
(210,257,o),
(162,365,o),
(157,388,cs),
(156,391,o),
(154,394,o),
(152,394,cs),
(144,395,o),
(123,383,o),
(116,379,cs),
(91,362,o),
(67,343,o),
(45,321,cs),
(38,314,o),
(16,289,o),
(14,279,cs),
(13,273,o),
(19,254,o),
(20,248,c),
(32,209,o),
(111,-16,o),
(124,-54,cs),
(125,-56,o),
(129,-56,o),
(132,-56,cs),
(144,-56,o),
(179,-36,o),
(189,-29,cs),
(203,-20,o),
(284,42,o),
(298,52,cs),
(317,64,o),
(431,135,o),
(449,148,c),
(470,91,o),
(492,35,o),
(514,-21,cs),
(522,-41,o),
(536,-58,o),
(548,-75,cs),
(550,-78,o),
(551,-83,o),
(555,-83,c),
(568,-86,o),
(598,-67,o),
(609,-60,cs)
);
},
{
closed = 1;
nodes = (
(288,132,o),
(346,364,o),
(357,404,c),
(366,377,o),
(426,213,o),
(436,186,c),
(384,155,o),
(334,122,o),
(286,86,c),
(282,84,o),
(278,87,o),
(279,92,cs)
);
}
);
width = 755;
}
);
note = A;
unicode = (65,192,193,194,195,196,197);
},
{
glyphname = B;
layers = (
{
layerId = m01;
shapes = (
{
closed = 1;
nodes = (
(549,-103,o),
(597,-91,o),
(644,-74,cs),
(676,-63,o),
(709,-47,o),
(731,-21,cs),
(757,12,o),
(776,54,o),
(782,95,cs),
(786,125,o),
(784,158,o),
(772,186,cs),
(763,206,o),
(748,224,o),
(731,239,cs),
(696,269,o),
(649,287,o),
(604,293,cs),
(507,307,o),
(407,292,o),
(311,276,c),
(372,308,o),
(432,340,o),
(493,371,cs),
(498,373,o),
(522,380,o),
(526,382,c),
(548,389,o),
(571,396,o),
(590,408,c),
(593,409,o),
(592,414,o),
(593,415,c),
(599,417,o),
(611,422,o),
(604,424,cs),
(595,426,o),
(586,422,o),
(577,423,c),
(498,459,o),
(415,487,o),
(339,529,cs),
(312,544,o),
(195,624,o),
(172,646,cs),
(170,648,o),
(165,649,o),
(161,649,cs),
(137,646,o),
(48,624,o),
(27,611,c),
(26,610,o),
(26,609,o),
(25,608,c),
(39,587,o),
(52,565,o),
(65,544,cs),
(69,538,o),
(90,510,o),
(94,504,cs),
(97,500,o),
(97,500,o),
(92,499,cs),
(82,496,o),
(41,485,o),
(33,478,cs),
(32,477,o),
(27,473,o),
(27,471,c),
(22,457,o),
(39,413,o),
(44,398,c),
(41,396,o),
(42,391,o),
(43,388,cs),
(71,292,o),
(100,196,o),
(130,101,cs),
(140,67,o),
(156,34,o),
(171,1,c),
(183,-5,o),
(225,7,o),
(239,10,c),
(252,-11,o),
(268,-30,o),
(284,-49,cs),
(309,-79,o),
(340,-106,o),
(377,-119,cs),
(416,-133,o),
(461,-124,o),
(501,-114,cs)
);
},
{
closed = 1;
nodes = (
(250,379,o),
(290,362,o),
(329,347,cs),
(341,343,o),
(355,343,o),
(369,344,cs),
(374,344,o),
(373,344,o),
(369,342,cs),
(334,323,o),
(300,304,o),
(266,285,c),
(249,323,o),
(231,362,o),
(214,400,c)
);
},
{
closed = 1;
nodes = (
(477,104,o),
(467,119,o),
(462,121,c),
(441,126,o),
(369,106,o),
(348,101,c),
(343,99,o),
(343,99,o),
(341,106,cs),
(326,154,o),
(303,199,o),
(283,245,c),
(348,249,o),
(418,249,o),
(476,220,cs),
(518,199,o),
(547,161,o),
(556,115,cs),
(563,81,o),
(557,43,o),
(546,10,cs),
(545,7,o),
(542,11,o),
(541,12,cs),
(518,39,o),
(502,71,o),
(480,100,cs)
);
}
);
width = 796;
}
);
note = B;
unicode = 66;
},
{
glyphname = C;
layers = (
{
layerId = m01;
shapes = (
{
closed = 1;
nodes = (
(375,-36,o),
(409,-27,o),
(442,-18,cs),
(480,-7,o),
(518,3,o),
(552,22,c),
(525,81,o),
(502,141,o),
(481,202,cs),
(473,225,o),
(465,248,o),
(459,271,c),
(427,266,o),
(396,257,o),
(366,246,cs),
(355,243,o),
(339,239,o),
(337,228,cs),
(330,201,o),
(350,93,o),
(354,66,c),
(322,89,o),
(292,118,o),
(271,152,cs),
(246,194,o),
(232,243,o),
(225,291,cs),
(214,363,o),
(217,439,o),
(233,510,c),
(248,479,o),
(265,450,o),
(284,422,cs),
(287,417,o),
(289,381,o),
(293,377,c),
(295,373,o),
(306,368,o),
(310,367,cs),
(319,363,o),
(351,371,o),
(361,373,cs),
(382,377,o),
(462,397,o),
(479,410,cs),
(482,413,o),
(496,428,o),
(498,432,c),
(491,446,o),
(483,459,o),
(477,474,cs),
(462,509,o),
(455,548,o),
(453,587,cs),
(452,616,o),
(455,645,o),
(455,675,cs),
(455,682,o),
(447,680,o),
(439,679,c),
(438,678,o),
(429,679,o),
(428,679,cs),
(414,677,o),
(363,664,o),
(351,656,cs),
(343,651,o),
(328,651,o),
(324,641,cs),
(313,617,o),
(306,591,o),
(300,565,c),
(295,575,o),
(270,631,o),
(264,640,c),
(256,642,o),
(226,635,o),
(217,632,cs),
(210,630,o),
(179,621,o),
(172,616,cs),
(159,605,o),
(120,547,o),
(111,532,cs),
(63,450,o),
(37,353,o),
(33,258,cs),
(30,195,o),
(36,127,o),
(66,71,cs),
(94,21,o),
(143,-22,o),
(197,-41,cs),
(243,-56,o),
(294,-52,o),
(341,-43,cs)
);
}
);
width = 567;
}
);
note = C;
unicode = (67,199);
},
{
glyphname = D;
layers = (
{
layerId = m01;
shapes = (
{
closed = 1;
nodes = (
(337,-9,o),
(379,24,o),
(414,62,cs),
(423,72,o),
(449,101,o),
(449,114,cs),
(449,133,o),
(442,151,o),
(435,168,cs),
(424,193,o),
(411,218,o),
(395,240,cs),
(341,312,o),
(279,377,o),
(219,444,cs),
(215,449,o),
(190,465,o),
(186,468,cs),
(218,446,o),
(251,424,o),
(287,406,cs),
(310,394,o),
(451,328,o),
(475,317,c),
(476,316,o),
(488,313,o),
(489,312,c),
(502,306,o),
(515,298,o),
(521,286,cs),
(529,270,o),
(524,249,o),
(520,232,cs),
(515,213,o),
(480,106,o),
(474,88,cs),
(469,70,o),
(500,84,o),
(516,94,cs),
(556,120,o),
(595,150,o),
(624,188,cs),
(647,220,o),
(704,363,o),
(712,402,cs),
(718,429,o),
(714,461,o),
(698,482,cs),
(695,485,o),
(688,494,o),
(684,496,cs),
(605,525,o),
(523,548,o),
(445,582,cs),
(370,614,o),
(299,657,o),
(226,692,cs),
(210,700,o),
(179,681,o),
(164,670,cs),
(135,649,o),
(107,626,o),
(84,598,cs),
(77,590,o),
(65,573,o),
(70,563,cs),
(81,544,o),
(151,494,o),
(168,481,cs),
(171,479,o),
(166,481,o),
(163,482,c),
(160,484,o),
(157,488,o),
(153,488,c),
(119,481,o),
(46,416,o),
(25,389,cs),
(19,382,o),
(11,372,o),
(17,365,c),
(17,366,o),
(19,364,o),
(20,363,c),
(21,360,o),
(17,356,o),
(19,354,cs),
(20,353,o),
(24,352,o),
(25,352,c),
(25,349,o),
(25,347,o),
(24,344,c),
(27,338,o),
(42,303,o),
(46,297,cs),
(111,205,o),
(184,116,o),
(230,12,cs),
(234,2,o),
(248,-35,o),
(257,-41,cs),
(265,-48,o),
(283,-39,o),
(292,-34,cs)
);
},
{
closed = 1;
nodes = (
(171,474,o),
(170,480,o),
(170,480,c),
(171,479,o),
(176,475,o),
(177,474,cs),
(179,473,o),
(173,473,o),
(171,474,c)
);
}
);
width = 730;
}
);
note = D;
unicode = 68;
},
{
glyphname = E;
layers = (
{
layerId = m01;
shapes = (
{
closed = 1;
nodes = (
(514,21,o),
(553,51,o),
(589,83,cs),
(616,107,o),
(642,131,o),
(665,159,cs),
(679,177,o),
(691,197,o),
(696,219,cs),
(697,222,o),
(694,226,o),
(691,228,cs),
(683,233,o),
(683,249,o),
(673,250,cs),
(666,250,o),
(644,240,o),
(638,236,cs),
(606,219,o),
(578,196,o),
(551,173,c),
(493,180,o),
(436,197,o),
(381,216,cs),
(314,239,o),
(244,258,o),
(184,295,cs),
(180,297,o),
(176,296,o),
(173,297,c),
(170,297,o),
(164,301,o),
(163,303,c),
(167,302,o),
(170,301,o),
(174,300,cs),
(236,288,o),
(298,277,o),
(359,266,cs),
(377,262,o),
(409,292,o),
(423,304,cs),
(435,316,o),
(450,329,o),
(453,345,c),
(431,350,o),
(295,379,o),
(273,384,cs),
(263,386,o),
(205,395,o),
(195,397,c),
(226,428,o),
(260,454,o),
(295,479,c),
(314,461,o),
(365,411,o),
(390,411,cs),
(413,411,o),
(470,451,o),
(488,465,cs),
(513,484,o),
(537,505,o),
(560,528,cs),
(578,547,o),
(597,567,o),
(606,592,cs),
(610,602,o),
(597,603,o),
(587,605,cs),
(546,615,o),
(407,726,o),
(371,749,cs),
(368,751,o),
(366,755,o),
(362,755,c),
(359,756,o),
(350,755,o),
(347,754,cs),
(299,734,o),
(196,654,o),
(178,606,cs),
(177,603,o),
(181,597,o),
(183,595,cs),
(209,563,o),
(239,534,o),
(269,505,c),
(193,447,o),
(118,385,o),
(61,308,cs),
(38,277,o),
(18,240,o),
(18,202,cs),
(18,192,o),
(20,181,o),
(17,171,c),
(17,169,o),
(13,161,o),
(13,159,cs),
(12,149,o),
(28,135,o),
(37,129,cs),
(56,115,o),
(78,104,o),
(99,93,cs),
(165,60,o),
(232,30,o),
(301,6,cs),
(334,-4,o),
(368,-15,o),
(402,-16,cs),
(426,-16,o),
(450,-10,o),
(471,1,cs)
);
}
);
width = 706;
}
);
note = E;
unicode = (69,200,201,202,203);
},
{
glyphname = F;
layers = (
{
layerId = m01;
shapes = (
{
closed = 1;
nodes = (
(337,-9,o),
(432,72,o),
(446,111,cs),
(452,130,o),
(427,163,o),
(414,178,cs),
(395,201,o),
(373,221,o),
(352,242,c),
(388,241,o),
(425,243,o),
(462,244,cs),
(487,245,o),
(543,291,o),
(562,308,cs),
(579,324,o),
(598,341,o),
(607,364,cs),
(608,368,o),
(605,372,o),
(600,371,cs),
(567,368,o),
(426,354,o),
(395,339,c),
(396,339,o),
(392,341,o),
(392,341,c),
(368,342,o),
(323,301,o),
(306,284,c),
(294,295,o),
(223,359,o),
(211,370,c),
(251,384,o),
(291,398,o),
(331,412,cs),
(334,413,o),
(351,411,o),
(355,411,cs),
(393,412,o),
(428,435,o),
(458,459,cs),
(483,479,o),
(508,499,o),
(528,524,cs),
(542,540,o),
(562,568,o),
(541,566,cs),
(510,563,o),
(478,575,o),
(449,587,cs),
(430,595,o),
(317,652,o),
(297,661,cs),
(293,663,o),
(293,667,o),
(290,669,cs),
(285,671,o),
(269,674,o),
(263,673,cs),
(232,666,o),
(164,606,o),
(145,580,cs),
(139,573,o),
(132,562,o),
(138,555,cs),
(178,514,o),
(219,475,o),
(266,444,c),
(221,430,o),
(176,415,o),
(131,401,cs),
(97,391,o),
(66,369,o),
(40,344,cs),
(34,338,o),
(15,319,o),
(15,310,c),
(14,307,o),
(13,305,o),
(12,302,cs),
(11,300,o),
(14,293,o),
(15,291,c),
(15,289,o),
(14,277,o),
(14,275,cs),
(15,264,o),
(29,231,o),
(35,223,cs),
(82,160,o),
(134,100,o),
(180,37,cs),
(187,28,o),
(213,-14,o),
(217,-25,cs),
(221,-35,o),
(222,-61,o),
(233,-63,cs),
(250,-66,o),
(289,-40,o),
(302,-31,cs)
);
}
);
width = 617;
}
);
note = F;
unicode = 70;
},
{
glyphname = G;
layers = (
{
layerId = m01;
shapes = (
{
closed = 1;
nodes = (
(696,-63,o),
(738,-50,o),
(779,-35,cs),
(784,-33,o),
(799,-26,o),
(803,-23,cs),
(806,-20,o),
(806,-7,o),
(805,-2,c),
(802,45,o),
(745,264,o),
(731,309,cs),
(719,347,o),
(703,386,o),
(675,414,cs),
(667,422,o),
(651,409,o),
(641,415,cs),
(622,427,o),
(596,420,o),
(575,416,cs),
(534,407,o),
(494,394,o),
(459,373,cs),
(430,356,o),
(403,337,o),
(375,318,c),
(372,315,o),
(370,318,o),
(367,321,cs),
(342,351,o),
(197,523,o),
(170,551,c),
(198,555,o),
(327,563,o),
(355,559,cs),
(359,559,o),
(371,552,o),
(375,553,c),
(387,528,o),
(419,466,o),
(445,458,cs),
(469,452,o),
(520,478,o),
(540,491,cs),
(581,520,o),
(621,554,o),
(648,596,cs),
(651,600,o),
(655,608,o),
(651,612,cs),
(647,617,o),
(628,610,o),
(621,611,cs),
(600,612,o),
(581,625,o),
(566,640,cs),
(554,651,o),
(492,723,o),
(480,735,cs),
(476,740,o),
(449,763,o),
(445,768,cs),
(440,773,o),
(428,792,o),
(421,793,cs),
(405,795,o),
(374,771,o),
(361,761,cs),
(349,751,o),
(317,723,o),
(316,707,cs),
(315,700,o),
(328,677,o),
(330,670,cs),
(336,654,o),
(339,637,o),
(345,620,c),
(295,620,o),
(243,619,o),
(195,603,cs),
(154,590,o),
(117,563,o),
(83,534,cs),
(62,516,o),
(43,496,o),
(28,472,cs),
(23,463,o),
(15,456,o),
(14,446,cs),
(12,434,o),
(16,421,o),
(19,409,cs),
(33,364,o),
(140,185,o),
(165,147,cs),
(193,105,o),
(220,61,o),
(252,22,cs),
(259,12,o),
(267,3,o),
(272,-8,cs),
(276,-15,o),
(291,-22,o),
(299,-23,cs),
(310,-24,o),
(339,-10,o),
(348,-5,cs),
(385,15,o),
(419,41,o),
(451,69,cs),
(476,92,o),
(502,115,o),
(520,143,c),
(519,90,o),
(517,37,o),
(523,-16,cs),
(526,-38,o),
(534,-62,o),
(550,-78,cs),
(552,-80,o),
(558,-88,o),
(562,-88,cs),
(593,-88,o),
(623,-80,o),
(653,-73,cs)
);
},
{
closed = 1;
nodes = (
(525,380,o),
(520,377,o),
(525,380,cs),
(532,384,o),
(538,385,o),
(531,382,cs)
);
},
{
closed = 1;
nodes = (
(469,197,o),
(406,275,o),
(390,294,c),
(428,322,o),
(468,347,o),
(509,371,cs),
(512,373,o),
(514,376,o),
(514,372,c),
(513,371,o),
(517,364,o),
(517,363,c),
(526,334,o),
(521,205,o),
(520,175,cs),
(520,171,o),
(513,174,o),
(510,176,cs),
(505,180,o),
(498,182,o),
(492,185,cs)
);
}
);
width = 816;
}
);
note = G;
unicode = 71;
},
{
glyphname = H;
kernRight = H;
lastChange = "2024-05-30 19:28:35 +0000";
layers = (
{
layerId = m01;
shapes = (
{
closed = 1;
nodes = (
(522,-54,o),
(596,27,o),
(598,68,cs),
(598,88,o),
(604,208,o),
(604,228,cs),
(607,379,o),
(612,529,o),
(609,680,cs),
(609,683,o),
(610,690,o),
(607,691,cs),
(599,694,o),
(589,689,o),
(581,685,cs),
(576,683,o),
(585,693,o),
(581,696,cs),
(576,701,o),
(564,693,o),
(558,690,cs),
(540,680,o),
(406,620,o),
(407,606,c),
(406,607,o),
(408,606,o),
(409,605,c),
(410,602,o),
(402,597,o),
(399,594,cs),
(394,588,o),
(379,568,o),
(379,560,cs),
(373,499,o),
(368,439,o),
(364,378,c),
(334,380,o),
(296,380,o),
(268,367,cs),
(254,360,o),
(241,350,o),
(229,339,c),
(217,397,o),
(204,454,o),
(191,511,cs),
(190,515,o),
(198,527,o),
(196,530,cs),
(192,535,o),
(179,531,o),
(173,529,cs),
(144,522,o),
(72,461,o),
(53,438,cs),
(46,431,o),
(26,401,o),
(24,391,cs),
(21,379,o),
(30,332,o),
(32,320,cs),
(50,235,o),
(69,149,o),
(87,64,c),
(108,58,o),
(148,89,o),
(166,102,cs),
(206,132,o),
(248,168,o),
(264,216,cs),
(267,223,o),
(262,227,o),
(254,225,c),
(249,247,o),
(244,269,o),
(239,291,c),
(262,291,o),
(335,289,o),
(358,289,c),
(350,167,o),
(343,44,o),
(337,-78,cs),
(337,-85,o),
(337,-94,o),
(344,-94,c),
(361,-97,o),
(400,-69,o),
(481,-59,cs)
);
}
);
width = 663;
}
);
note = H;
unicode = 72;
},
{
glyphname = I;
layers = (
{
layerId = m01;
shapes = (
{
closed = 1;
nodes = (
(107,508,o),
(147,539,o),
(175,578,cs),
(187,595,o),
(189,617,o),
(193,636,cs),
(196,649,o),
(190,655,o),
(178,650,cs),
(136,633,o),
(100,603,o),
(69,570,cs),
(59,559,o),
(49,548,o),
(42,535,cs),
(32,517,o),
(28,495,o),
(23,474,cs),
(17,456,o),
(50,472,o),
(66,482,cs)
);
},
{
closed = 1;
nodes = (
(194,17,o),
(225,40,o),
(254,63,cs),
(284,87,o),
(313,113,o),
(338,142,cs),
(348,154,o),
(374,188,o),
(374,204,cs),
(373,228,o),
(361,250,o),
(348,270,cs),
(318,316,o),
(287,362,o),
(249,401,cs),
(246,404,o),
(225,418,o),
(222,421,c),
(227,423,o),
(256,434,o),
(261,436,cs),
(293,452,o),
(322,476,o),
(343,505,cs),
(347,511,o),
(354,520,o),
(347,522,c),
(347,521,o),
(344,522,o),
(343,523,c),
(329,519,o),
(264,493,o),
(251,487,cs),
(196,464,o),
(142,430,o),
(103,384,cs),
(84,362,o),
(69,336,o),
(59,309,cs),
(58,306,o),
(58,293,o),
(58,289,cs),
(58,261,o),
(61,232,o),
(72,207,cs),
(83,183,o),
(135,75,o),
(140,49,cs),
(140,47,o),
(142,38,o),
(142,36,c),
(139,26,o),
(128,19,o),
(129,9,cs),
(130,-4,o),
(148,-1,o),
(159,4,cs)
);
}
);
width = 396;
}
);
note = I;
unicode = (73,204,205,206,207);
},
{
glyphname = J;
layers = (
{
layerId = m01;
shapes = (
{
closed = 1;
nodes = (
(303,478,o),
(378,533,o),
(385,566,cs),
(387,575,o),
(389,621,o),
(389,630,cs),
(390,637,o),
(389,646,o),
(382,645,cs),
(342,638,o),
(308,608,o),
(279,580,cs),
(267,569,o),
(234,532,o),
(231,517,cs),
(229,507,o),
(234,463,o),
(235,453,cs),
(236,436,o),
(260,450,o),
(274,459,cs)
);
},
{
closed = 1;
nodes = (
(284,-49,o),
(373,4,o),
(445,67,cs),
(479,97,o),
(513,128,o),
(540,164,cs),
(552,181,o),
(559,200,o),
(564,220,cs),
(570,243,o),
(568,267,o),
(563,290,cs),
(558,316,o),
(550,342,o),
(539,366,cs),
(531,384,o),
(491,455,o),
(489,475,cs),
(489,480,o),
(488,491,o),
(493,494,cs),
(510,503,o),
(557,538,o),
(564,557,cs),
(570,574,o),
(543,562,o),
(527,553,cs),
(479,527,o),
(432,491,o),
(402,444,cs),
(399,440,o),
(383,419,o),
(381,415,cs),
(370,389,o),
(369,360,o),
(368,332,cs),
(364,264,o),
(379,195,o),
(372,127,c),
(340,124,o),
(307,126,o),
(278,138,cs),
(252,148,o),
(209,184,o),
(206,212,cs),
(205,221,o),
(206,236,o),
(197,237,cs),
(185,238,o),
(154,219,o),
(144,213,cs),
(103,186,o),
(65,153,o),
(32,117,cs),
(25,110,o),
(7,85,o),
(5,76,cs),
(4,68,o),
(8,36,o),
(10,29,cs),
(19,-4,o),
(45,-34,o),
(75,-50,cs),
(109,-68,o),
(151,-71,o),
(189,-65,cs)
);
}
);
width = 597;
}
);
note = J;
unicode = 74;
},
{
glyphname = K;
layers = (
{
layerId = m01;
shapes = (
{
closed = 1;
nodes = (
(759,-65,o),
(802,-30,o),
(839,10,cs),
(849,21,o),
(875,48,o),
(873,63,cs),
(872,67,o),
(868,69,o),
(866,72,c),
(753,190,o),
(630,300,o),
(510,411,cs),
(505,415,o),
(505,415,o),
(509,419,c),
(518,425,o),
(571,464,o),
(581,470,cs),
(621,495,o),
(663,523,o),
(690,562,cs),
(696,571,o),
(704,585,o),
(694,586,cs),
(687,587,o),
(667,578,o),
(662,575,cs),
(636,561,o),
(610,546,o),
(586,529,cs),
(521,483,o),
(455,437,o),
(391,390,cs),
(351,360,o),
(311,331,o),
(273,298,c),
(264,330,o),
(213,527,o),
(205,560,c),
(204,562,o),
(201,563,o),
(198,563,cs),
(197,563,o),
(194,571,o),
(191,570,cs),
(178,568,o),
(166,562,o),
(154,555,cs),
(122,534,o),
(91,510,o),
(64,482,cs),
(53,471,o),
(27,446,o),
(30,430,c),
(31,428,o),
(27,418,o),
(27,415,c),
(35,370,o),
(79,113,o),
(90,69,cs),
(97,39,o),
(105,9,o),
(122,-17,cs),
(128,-27,o),
(138,-34,o),
(148,-41,cs),
(171,-57,o),
(210,-26,o),
(233,-9,cs),
(272,20,o),
(311,52,o),
(340,91,cs),
(349,103,o),
(360,117,o),
(349,126,cs),
(328,142,o),
(298,218,o),
(290,243,cs),
(289,248,o),
(289,248,o),
(292,251,cs),
(305,262,o),
(317,273,o),
(328,284,c),
(418,180,o),
(508,76,o),
(599,-27,cs),
(615,-45,o),
(633,-60,o),
(651,-77,cs),
(657,-82,o),
(674,-101,o),
(682,-101,cs),
(688,-102,o),
(706,-94,o),
(711,-91,cs)
);
}
);
width = 876;
}
);
note = K;
unicode = 75;
},
{
glyphname = L;
layers = (
{
layerId = m01;
shapes = (
{
closed = 1;
nodes = (
(593,24,o),
(649,70,o),
(693,125,cs),
(699,132,o),
(704,141,o),
(707,149,cs),
(709,155,o),
(710,161,o),
(705,163,cs),
(665,178,o),
(453,217,o),
(411,225,cs),
(386,230,o),
(232,257,o),
(207,261,cs),
(198,263,o),
(164,265,o),
(155,262,cs),
(150,260,o),
(138,254,o),
(142,259,cs),
(170,299,o),
(253,409,o),
(245,458,cs),
(244,463,o),
(241,481,o),
(239,485,c),
(235,490,o),
(220,518,o),
(216,523,cs),
(212,528,o),
(206,532,o),
(202,537,c),
(201,540,o),
(196,557,o),
(195,560,cs),
(192,567,o),
(187,577,o),
(194,581,cs),
(210,592,o),
(237,617,o),
(218,615,cs),
(187,611,o),
(145,571,o),
(136,540,c),
(133,534,o),
(119,499,o),
(118,492,cs),
(111,452,o),
(113,412,o),
(117,372,cs),
(120,342,o),
(114,310,o),
(101,283,cs),
(94,269,o),
(57,202,o),
(47,190,cs),
(41,182,o),
(18,159,o),
(17,149,cs),
(17,148,o),
(11,137,o),
(11,135,cs),
(11,131,o),
(15,127,o),
(18,124,cs),
(21,121,o),
(31,112,o),
(34,111,cs),
(57,101,o),
(190,53,o),
(214,45,cs),
(302,18,o),
(389,-12,o),
(478,-35,cs),
(491,-38,o),
(523,-22,o),
(534,-14,cs)
);
}
);
width = 713;
}
);
note = L;
unicode = 76;
},
{
glyphname = M;
lastChange = "2023-03-06 21:40:25 +0000";
layers = (
{
layerId = m01;
shapes = (
{
closed = 1;
nodes = (
(794,1,o),
(917,93,o),
(933,149,cs),
(934,154,o),
(933,170,o),
(930,175,cs),
(871,270,o),
(812,365,o),
(746,456,cs),
(740,465,o),
(697,519,o),
(690,529,cs),
(687,533,o),
(683,538,o),
(677,539,cs),
(666,540,o),
(637,522,o),
(627,516,c),
(624,522,o),
(608,546,o),
(607,553,cs),
(606,556,o),
(606,561,o),
(604,561,c),
(590,564,o),
(563,541,o),
(552,532,cs),
(541,523,o),
(512,499,o),
(511,485,c),
(510,481,o),
(516,478,o),
(516,475,cs),
(515,455,o),
(510,435,o),
(506,416,cs),
(504,407,o),
(496,400,o),
(494,391,cs),
(480,336,o),
(464,280,o),
(448,225,c),
(435,240,o),
(360,328,o),
(346,342,cs),
(313,375,o),
(280,408,o),
(247,441,cs),
(243,445,o),
(239,449,o),
(234,449,cs),
(225,450,o),
(201,437,o),
(193,432,cs),
(148,403,o),
(105,367,o),
(71,325,cs),
(68,321,o),
(59,307,o),
(59,302,cs),
(58,294,o),
(83,267,o),
(80,259,cs),
(74,241,o),
(36,136,o),
(28,118,cs),
(23,107,o),
(5,90,o),
(17,91,cs),
(43,94,o),
(93,138,o),
(108,160,cs),
(116,172,o),
(122,185,o),
(128,198,c),
(182,120,o),
(244,48,o),
(303,-27,cs),
(314,-41,o),
(338,-26,o),
(354,-18,cs),
(405,10,o),
(449,51,o),
(489,94,cs),
(496,101,o),
(515,127,o),
(518,137,cs),
(519,143,o),
(511,151,o),
(513,157,cs),
(527,194,o),
(538,231,o),
(549,269,c),
(597,173,o),
(645,78,o),
(694,-16,cs),
(696,-19,o),
(702,-31,o),
(705,-33,cs),
(714,-41,o),
(733,-32,o),
(743,-26,cs)
);
}
);
width = 945;
}
);
note = M;
unicode = 77;
},
{
glyphname = N;
layers = (
{
layerId = m01;
shapes = (
{
closed = 1;
nodes = (
(435,31,o),
(447,38,o),
(458,45,cs),
(499,70,o),
(603,149,o),
(615,196,cs),
(619,209,o),
(607,224,o),
(598,234,c),
(595,236,o),
(588,248,o),
(585,249,c),
(576,254,o),
(521,287,o),
(512,292,cs),
(507,295,o),
(507,295,o),
(512,297,cs),
(534,306,o),
(553,320,o),
(572,335,cs),
(599,355,o),
(625,377,o),
(646,403,cs),
(661,421,o),
(678,445,o),
(671,467,cs),
(668,476,o),
(667,486,o),
(661,492,cs),
(650,505,o),
(590,574,o),
(581,588,cs),
(574,597,o),
(542,654,o),
(536,664,cs),
(530,675,o),
(516,666,o),
(505,660,cs),
(470,641,o),
(438,616,o),
(411,587,cs),
(402,577,o),
(380,554,o),
(382,541,c),
(382,535,o),
(387,503,o),
(387,497,c),
(398,434,o),
(438,379,o),
(474,325,c),
(481,322,o),
(486,315,o),
(489,307,cs),
(490,304,o),
(486,307,o),
(482,309,cs),
(449,329,o),
(417,352,o),
(386,376,cs),
(352,404,o),
(270,491,o),
(265,534,cs),
(262,556,o),
(236,540,o),
(217,529,cs),
(189,512,o),
(164,492,o),
(140,471,cs),
(122,454,o),
(79,413,o),
(81,388,cs),
(82,375,o),
(86,362,o),
(91,349,cs),
(93,343,o),
(96,337,o),
(94,331,cs),
(85,307,o),
(30,157,o),
(21,132,cs),
(18,125,o),
(12,118,o),
(13,110,cs),
(13,104,o),
(22,109,o),
(27,111,cs),
(47,120,o),
(91,155,o),
(98,176,cs),
(101,188,o),
(127,252,o),
(132,264,c),
(174,200,o),
(233,150,o),
(293,104,cs),
(319,84,o),
(345,62,o),
(376,49,c),
(381,48,o),
(399,35,o),
(403,32,cs),
(404,31,o),
(403,29,o),
(404,28,cs),
(408,24,o),
(417,26,o),
(422,28,c)
);
}
);
width = 689;
}
);
note = N;
unicode = (78,209);
},
{
glyphname = O;
layers = (
{
layerId = m01;
shapes = (
{
closed = 1;
nodes = (
(408,66,o),
(446,95,o),
(479,127,cs),
(497,145,o),
(552,200,o),
(557,224,cs),
(558,231,o),
(554,257,o),
(553,263,cs),
(544,316,o),
(482,627,o),
(471,679,cs),
(470,682,o),
(466,694,o),
(467,697,cs),
(468,702,o),
(473,708,o),
(472,713,cs),
(470,722,o),
(459,720,o),
(451,717,cs),
(417,703,o),
(386,681,o),
(357,658,cs),
(329,635,o),
(301,611,o),
(278,584,cs),
(265,569,o),
(252,553,o),
(247,533,cs),
(246,530,o),
(246,520,o),
(243,518,cs),
(174,480,o),
(108,430,o),
(60,368,cs),
(26,325,o),
(6,261,o),
(21,209,cs),
(27,187,o),
(40,167,o),
(57,152,cs),
(87,124,o),
(127,108,o),
(165,94,cs),
(214,75,o),
(265,62,o),
(316,53,c),
(322,51,o),
(320,38,o),
(327,36,cs),
(336,32,o),
(358,40,o),
(367,45,cs)
);
},
{
closed = 1;
nodes = (
(242,211,o),
(196,226,o),
(159,253,cs),
(135,270,o),
(114,298,o),
(112,327,cs),
(110,361,o),
(124,399,o),
(147,423,cs),
(160,436,o),
(226,471,o),
(242,479,c),
(242,474,o),
(244,451,o),
(244,447,c),
(249,416,o),
(285,234,o),
(290,203,cs),
(291,197,o),
(292,198,o),
(287,199,cs)
);
}
);
width = 584;
}
);
note = O;
unicode = (79,210,211,212,213,214,216);
},
{
glyphname = P;
layers = (
{
layerId = m01;
shapes = (
{
closed = 1;
nodes = (
(380,75,o),
(395,94,o),
(395,102,cs),
(395,112,o),
(377,145,o),
(373,154,cs),
(370,160,o),
(365,167,o),
(370,171,cs),
(421,210,o),
(471,249,o),
(521,289,cs),
(562,322,o),
(604,356,o),
(638,396,cs),
(649,409,o),
(662,425,o),
(662,442,cs),
(662,446,o),
(664,450,o),
(664,454,cs),
(665,461,o),
(663,464,o),
(657,467,cs),
(622,488,o),
(586,508,o),
(550,529,cs),
(538,535,o),
(470,564,o),
(459,569,cs),
(423,586,o),
(385,604,o),
(357,632,cs),
(340,650,o),
(320,670,o),
(317,695,cs),
(316,703,o),
(313,730,o),
(317,737,cs),
(319,741,o),
(321,747,o),
(319,750,cs),
(317,752,o),
(310,751,o),
(307,750,cs),
(298,748,o),
(290,743,o),
(282,738,cs),
(257,723,o),
(186,664,o),
(174,638,cs),
(168,625,o),
(165,610,o),
(162,596,c),
(162,594,o),
(158,601,o),
(157,601,c),
(152,605,o),
(145,602,o),
(139,599,cs),
(127,595,o),
(117,588,o),
(106,580,cs),
(79,562,o),
(54,541,o),
(33,516,cs),
(25,507,o),
(9,489,o),
(14,477,cs),
(40,423,o),
(55,365,o),
(79,310,cs),
(128,197,o),
(178,83,o),
(228,-31,cs),
(229,-34,o),
(234,-34,o),
(238,-34,c),
(273,-27,o),
(352,41,o),
(375,69,cs)
);
},
{
closed = 1;
nodes = (
(328,352,o),
(404,330,o),
(476,303,c),
(481,302,o),
(479,301,o),
(475,298,cs),
(460,286,o),
(367,211,o),
(352,199,c),
(322,264,o),
(293,329,o),
(263,394,c)
);
}
);
width = 670;
}
);
note = P;
unicode = 80;
},
{
glyphname = Q;
layers = (
{
layerId = m01;
shapes = (
{
closed = 1;
nodes = (
(570,-93,o),
(625,-49,o),
(668,2,cs),
(681,17,o),
(697,34,o),
(696,54,c),
(685,59,o),
(675,65,o),
(663,67,cs),
(616,76,o),
(568,86,o),
(520,86,cs),
(457,86,o),
(392,72,o),
(333,48,c),
(330,46,o),
(336,55,o),
(334,59,cs),
(331,65,o),
(318,59,o),
(310,57,c),
(316,66,o),
(330,94,o),
(340,97,cs),
(433,124,o),
(526,171,o),
(593,240,cs),
(608,255,o),
(644,296,o),
(642,317,cs),
(640,332,o),
(635,347,o),
(626,360,cs),
(605,389,o),
(576,413,o),
(546,434,cs),
(458,494,o),
(361,540,o),
(268,593,cs),
(259,598,o),
(247,600,o),
(238,606,cs),
(236,607,o),
(228,615,o),
(227,616,cs),
(223,619,o),
(229,627,o),
(225,631,cs),
(226,630,o),
(223,631,o),
(222,632,c),
(223,632,o),
(219,633,o),
(218,633,cs),
(193,632,o),
(132,585,o),
(113,569,cs),
(83,544,o),
(55,517,o),
(34,484,cs),
(29,476,o),
(25,462,o),
(31,454,cs),
(47,435,o),
(69,419,o),
(91,409,cs),
(131,390,o),
(377,274,o),
(416,255,cs),
(439,243,o),
(464,233,o),
(481,214,c),
(428,194,o),
(372,179,o),
(316,171,cs),
(272,166,o),
(222,168,o),
(184,190,cs),
(142,214,o),
(117,270,o),
(115,318,cs),
(114,334,o),
(118,351,o),
(123,367,cs),
(127,380,o),
(108,368,o),
(97,360,cs),
(88,354,o),
(60,329,o),
(55,320,cs),
(23,258,o),
(38,162,o),
(87,113,cs),
(93,107,o),
(98,99,o),
(105,95,cs),
(116,87,o),
(161,75,o),
(174,73,cs),
(216,70,o),
(258,77,o),
(299,86,c),
(278,64,o),
(261,39,o),
(244,14,c),
(222,-4,o),
(200,-24,o),
(181,-45,cs),
(175,-53,o),
(158,-75,o),
(158,-85,cs),
(158,-89,o),
(159,-98,o),
(161,-100,cs),
(166,-104,o),
(183,-102,o),
(189,-102,cs),
(246,-96,o),
(304,-93,o),
(360,-106,cs),
(399,-115,o),
(436,-130,o),
(476,-135,cs),
(488,-136,o),
(500,-131,o),
(510,-125,cs)
);
}
);
width = 705;
}
);
note = Q;
unicode = 81;
},
{
glyphname = R;
layers = (
{
layerId = m01;
shapes = (
{
closed = 1;
nodes = (
(718,-172,o),
(718,-166,o),
(718,-163,cs),
(720,-69,o),
(708,24,o),
(717,117,cs),
(718,125,o),
(723,173,o),
(724,181,cs),
(728,212,o),
(736,287,o),
(715,310,cs),
(703,322,o),
(683,322,o),
(666,320,cs),
(556,309,o),
(450,265,o),
(353,211,c),
(382,238,o),
(548,399,o),
(575,428,cs),
(601,456,o),
(633,484,o),
(640,522,cs),
(642,536,o),
(626,540,o),
(612,543,cs),
(587,548,o),
(459,572,o),
(435,582,cs),
(418,588,o),
(403,598,o),
(388,608,cs),
(378,614,o),
(371,626,o),
(369,637,cs),
(364,660,o),
(376,684,o),
(386,706,cs),
(388,710,o),
(399,730,o),
(400,735,cs),
(405,753,o),
(376,740,o),
(360,730,cs),
(329,712,o),
(301,688,o),
(276,663,cs),
(250,637,o),
(232,605,o),
(215,574,cs),
(206,557,o),
(182,495,o),
(181,476,cs),
(181,463,o),
(189,433,o),
(199,424,cs),
(220,407,o),
(247,396,o),
(272,386,cs),
(298,375,o),
(400,348,o),
(428,348,cs),
(431,348,o),
(444,351,o),
(447,352,c),
(400,304,o),
(354,256,o),
(307,208,c),
(268,293,o),
(222,374,o),
(179,456,cs),
(176,461,o),
(167,459,o),
(161,459,cs),
(143,458,o),
(127,446,o),
(112,436,cs),
(76,411,o),
(42,380,o),
(18,343,cs),
(13,335,o),
(11,325,o),
(15,317,cs),
(42,249,o),
(70,181,o),
(98,113,cs),
(107,89,o),
(173,-44,o),
(184,-68,cs),
(189,-79,o),
(203,-73,o),
(215,-68,cs),
(239,-57,o),
(260,-40,o),
(281,-24,cs),
(306,-4,o),
(330,18,o),
(350,43,cs),
(357,51,o),
(370,68,o),
(366,78,cs),
(354,103,o),
(342,129,o),
(331,154,cs),
(329,159,o),
(329,160,o),
(335,162,cs),
(361,171,o),
(489,245,o),
(514,258,cs),
(519,260,o),
(519,260,o),
(523,255,cs),
(531,243,o),
(531,226,o),
(530,212,cs),
(524,147,o),
(502,85,o),
(492,21,cs),
(480,-62,o),
(479,-148,o),
(489,-231,c),
(490,-234,o),
(494,-233,o),
(497,-233,cs),
(540,-234,o),
(678,-196,o),
(715,-174,cs)
);
}
);
width = 753;
}
);
note = R;
unicode = 82;
},
{
glyphname = S;
layers = (
{
layerId = m01;
shapes = (
{
closed = 1;
nodes = (
(258,-4,o),
(293,24,o),
(326,53,cs),
(333,59,o),
(343,61,o),
(351,65,cs),
(386,81,o),
(417,106,o),
(446,131,cs),
(478,160,o),
(509,190,o),
(533,225,cs),
(548,247,o),
(562,271,o),
(566,297,cs),
(567,304,o),
(566,327,o),
(563,333,cs),
(559,345,o),
(549,355,o),
(540,364,cs),
(497,405,o),
(434,424,o),
(375,430,cs),
(357,432,o),
(261,432,o),
(243,431,cs),
(235,431,o),
(227,428,o),
(219,429,cs),
(216,429,o),
(196,434,o),
(192,435,cs),
(179,439,o),
(174,456,o),
(164,465,cs),
(161,467,o),
(161,475,o),
(161,478,cs),
(160,492,o),
(165,507,o),
(171,520,c),
(191,530,o),
(214,535,o),
(236,541,cs),
(242,542,o),
(242,542,o),
(247,538,cs),
(254,531,o),
(292,495,o),
(299,490,cs),
(307,484,o),
(332,473,o),
(334,463,cs),
(335,454,o),
(350,462,o),
(359,466,cs),
(394,485,o),
(426,511,o),
(454,539,cs),
(468,552,o),
(494,577,o),
(486,595,cs),
(482,602,o),
(466,625,o),
(460,630,cs),
(429,653,o),
(398,676,o),
(367,700,cs),
(358,706,o),
(302,741,o),
(293,747,cs),
(284,753,o),
(273,755,o),
(263,759,cs),
(261,760,o),
(258,763,o),
(253,762,cs),
(236,759,o),
(188,722,o),
(175,710,cs),
(165,701,o),
(137,673,o),
(136,659,cs),
(135,648,o),
(157,625,o),
(165,617,cs),
(171,611,o),
(206,575,o),
(212,569,c),
(168,550,o),
(129,516,o),
(102,477,cs),
(88,458,o),
(80,435,o),
(75,412,cs),
(74,406,o),
(68,377,o),
(68,371,cs),
(67,364,o),
(74,331,o),
(76,324,cs),
(77,319,o),
(80,315,o),
(82,310,cs),
(83,308,o),
(85,296,o),
(86,294,cs),
(91,286,o),
(116,277,o),
(125,275,cs),
(191,255,o),
(258,226,o),
(307,178,cs),
(317,168,o),
(340,137,o),
(340,123,c),
(339,119,o),
(340,114,o),
(337,114,cs),
(309,114,o),
(281,128,o),
(257,142,cs),
(223,163,o),
(190,184,o),
(157,207,c),
(155,209,o),
(152,211,o),
(148,212,cs),
(109,219,o),
(51,166,o),
(27,134,cs),
(22,127,o),
(15,108,o),
(17,100,cs),
(21,84,o),
(64,32,o),
(74,18,cs),
(92,-6,o),
(116,-30,o),
(145,-38,cs),
(169,-44,o),
(196,-34,o),
(218,-24,cs)
);
},
{
closed = 1;
nodes = (
(122,-38,o),
(125,-46,o),
(124,-38,cs),
(123,-33,o),
(122,-25,o),
(122,-30,cs)
);
}
);
width = 582;
}
);
note = S;
unicode = 83;
},
{
glyphname = T;
layers = (
{
layerId = m01;
shapes = (
{
closed = 1;
nodes = (
(469,-19,o),
(506,-1,o),
(514,4,cs),
(559,32,o),
(600,67,o),
(638,104,cs),
(662,127,o),
(687,153,o),
(694,185,cs),
(696,192,o),
(694,199,o),
(687,200,cs),
(681,200,o),
(649,184,o),
(642,185,cs),
(584,194,o),
(312,294,o),
(256,315,cs),
(253,316,o),
(240,310,o),
(237,311,c),
(234,311,o),
(229,319,o),
(229,324,cs),
(228,349,o),
(228,376,o),
(239,399,c),
(304,384,o),
(369,370,o),
(434,356,cs),
(453,352,o),
(515,347,o),
(533,354,cs),
(591,376,o),
(644,415,o),
(686,460,cs),
(700,475,o),
(731,503,o),
(724,522,c),
(723,527,o),
(713,523,o),
(708,523,cs),
(703,522,o),
(674,526,o),
(669,527,cs),
(587,540,o),
(506,552,o),
(425,564,c),
(442,577,o),
(545,655,o),
(562,669,cs),
(589,690,o),
(645,741,o),
(612,732,cs),
(599,728,o),
(552,696,o),
(541,689,cs),
(487,652,o),
(434,614,o),
(382,575,cs),
(377,572,o),
(376,571,o),
(371,572,cs),
(312,581,o),
(252,588,o),
(192,596,cs),
(168,599,o),
(115,559,o),
(96,543,cs),
(72,524,o),
(48,503,o),
(32,477,cs),
(27,470,o),
(20,458,o),
(27,452,cs),
(28,451,o),
(36,449,o),
(38,449,c),
(57,444,o),
(164,415,o),
(183,411,c),
(137,367,o),
(92,319,o),
(66,261,cs),
(63,254,o),
(49,221,o),
(48,214,cs),
(46,203,o),
(45,152,o),
(40,142,cs),
(36,135,o),
(33,125,o),
(41,121,cs),
(90,91,o),
(333,0,o),
(388,-16,cs),
(411,-22,o),
(436,-27,o),
(460,-21,cs)
);
}
);
width = 741;
}
);
note = T;
unicode = 84;
},
{
glyphname = U;
layers = (
{
layerId = m01;
shapes = (
{
closed = 1;
nodes = (
(496,-12,o),
(541,27,o),
(582,66,cs),
(598,82,o),
(636,123,o),
(635,145,cs),
(633,200,o),
(599,250,o),
(571,298,cs),
(553,329,o),
(467,460,o),
(440,484,cs),
(439,485,o),
(438,485,o),
(437,486,cs),
(431,490,o),
(407,521,o),
(402,525,cs),
(395,530,o),
(380,521,o),
(373,517,cs),
(346,502,o),
(323,482,o),
(302,459,cs),
(296,452,o),
(280,435,o),
(281,426,cs),
(283,409,o),
(285,392,o),
(287,374,cs),
(293,318,o),
(311,263,o),
(328,208,c),
(311,193,o),
(294,179,o),
(276,164,c),
(271,172,o),
(265,179,o),
(259,186,cs),
(239,210,o),
(220,236,o),
(207,264,cs),
(187,311,o),
(181,363,o),
(175,414,cs),
(174,421,o),
(171,451,o),
(172,458,cs),
(176,477,o),
(143,460,o),
(127,448,cs),
(107,435,o),
(58,394,o),
(54,370,cs),
(46,324,o),
(36,277,o),
(32,230,cs),
(29,187,o),
(26,143,o),
(36,101,cs),
(44,67,o),
(64,14,o),
(99,12,cs),
(113,11,o),
(128,16,o),
(141,23,cs),
(172,40,o),
(201,63,o),
(228,87,cs),
(237,95,o),
(245,104,o),
(254,111,cs),
(264,119,o),
(323,165,o),
(333,173,cs),
(336,176,o),
(338,177,o),
(340,172,cs),
(357,118,o),
(376,64,o),
(396,10,cs),
(400,1,o),
(412,-26,o),
(419,-32,cs),
(424,-35,o),
(438,-36,o),
(443,-33,c)
);
}
);
width = 650;
}
);
note = U;
unicode = (85,217,218,219,220);
},
{
glyphname = V;
layers = (
{
layerId = m01;
shapes = (
{
closed = 1;
nodes = (
(197,-35,o),
(201,-37,o),
(202,-37,cs),
(212,-38,o),
(239,-23,o),
(247,-18,cs),
(276,1,o),
(304,22,o),
(330,45,cs),
(377,88,o),
(415,141,o),
(448,195,cs),
(466,224,o),
(480,256,o),
(488,290,cs),
(496,329,o),
(498,372,o),
(484,410,cs),
(479,422,o),
(452,499,o),
(447,511,cs),
(443,520,o),
(423,569,o),
(420,578,cs),
(417,589,o),
(411,598,o),
(408,609,cs),
(408,610,o),
(406,618,o),
(406,619,cs),
(406,620,o),
(402,625,o),
(402,626,c),
(397,642,o),
(415,677,o),
(426,691,cs),
(443,712,o),
(486,752,o),
(458,748,cs),
(443,745,o),
(404,714,o),
(392,704,cs),
(344,662,o),
(300,614,o),
(266,560,cs),
(257,547,o),
(234,491,o),
(232,475,cs),
(231,469,o),
(226,438,o),
(226,432,cs),
(228,409,o),
(232,386,o),
(238,365,cs),
(246,333,o),
(287,203,o),
(285,170,cs),
(284,157,o),
(282,144,o),
(279,131,cs),
(273,101,o),
(256,73,o),
(240,47,c),
(224,79,o),
(122,234,o),
(101,263,cs),
(91,278,o),
(80,292,o),
(67,304,cs),
(63,307,o),
(49,296,o),
(44,297,cs),
(39,298,o),
(29,290,o),
(25,286,cs),
(23,284,o),
(17,280,o),
(19,277,cs),
(22,270,o),
(7,263,o),
(9,257,cs),
(25,219,o),
(126,29,o),
(146,-6,cs),
(149,-11,o),
(167,-38,o),
(171,-42,c),
(175,-49,o),
(188,-36,o),
(196,-35,cs)
);
}
);
width = 521;
}
);
note = V;
unicode = 86;
},
{
glyphname = W;
layers = (
{
layerId = m01;
shapes = (
{
closed = 1;
nodes = (
(474,8,o),
(516,44,o),
(554,80,cs),
(566,92,o),
(601,128,o),
(603,144,cs),
(603,148,o),
(604,152,o),
(606,154,cs),
(658,194,o),
(710,234,o),
(757,279,cs),
(791,311,o),
(856,373,o),
(840,417,cs),
(838,424,o),
(815,442,o),
(810,448,cs),
(768,497,o),
(726,549,o),
(677,592,cs),
(666,601,o),
(644,622,o),
(631,619,cs),
(598,611,o),
(536,561,o),
(521,530,cs),
(510,506,o),
(540,445,o),
(551,421,cs),
(560,402,o),
(612,301,o),
(618,280,cs),
(620,272,o),
(625,231,o),
(626,223,c),
(616,215,o),
(607,206,o),
(597,198,cs),
(594,195,o),
(591,194,o),
(589,197,cs),
(576,213,o),
(511,304,o),
(500,321,cs),
(471,367,o),
(454,420,o),
(432,469,cs),
(426,481,o),
(419,496,o),
(408,491,cs),
(380,479,o),
(356,458,o),
(335,436,cs),
(329,430,o),
(309,396,o),
(304,390,cs),
(300,383,o),
(294,374,o),
(301,370,c),
(289,356,o),
(266,332,o),
(284,330,c),
(275,318,o),
(262,306,o),
(261,291,cs),
(261,263,o),
(260,235,o),
(260,207,cs),
(259,195,o),
(242,148,o),
(238,137,c),
(219,218,o),
(196,299,o),
(160,373,cs),
(150,394,o),
(136,416,o),
(114,424,cs),
(107,427,o),
(89,421,o),
(83,418,c),
(82,418,o),
(82,420,o),
(81,420,cs),
(75,421,o),
(60,412,o),
(55,408,cs),
(44,400,o),
(11,371,o),
(5,359,cs),
(2,351,o),
(16,354,o),
(24,358,cs),
(31,362,o),
(45,361,o),
(51,357,cs),
(91,328,o),
(123,175,o),
(139,128,cs),
(153,89,o),
(166,50,o),
(179,11,cs),
(180,8,o),
(178,4,o),
(180,1,cs),
(184,-3,o),
(192,3,o),
(197,6,c),
(197,3,o),
(195,-3,o),
(197,-5,cs),
(198,-6,o),
(202,-3,o),
(204,-2,cs),
(222,6,o),
(237,21,o),
(247,39,cs),
(260,63,o),
(307,197,o),
(316,223,c),
(337,146,o),
(364,71,o),
(388,-5,cs),
(389,-10,o),
(391,-11,o),
(395,-12,cs),
(401,-13,o),
(419,-14,o),
(425,-12,cs)
);
}
);
width = 852;
}
);
note = W;
unicode = 87;
},
{
glyphname = X;
layers = (
{
layerId = m01;
shapes = (
{
closed = 1;
nodes = (
(604,-14,o),
(712,80,o),
(744,117,cs),
(762,139,o),
(787,172,o),
(759,176,cs),
(707,184,o),
(656,202,o),
(608,224,cs),
(540,254,o),
(475,294,o),
(418,342,cs),
(414,346,o),
(414,346,o),
(417,351,cs),
(423,359,o),
(429,368,o),
(435,377,cs),
(440,384,o),
(443,396,o),
(449,390,cs),
(461,379,o),
(476,372,o),
(490,365,cs),
(522,349,o),
(557,338,o),
(591,328,cs),
(602,324,o),
(640,321,o),
(651,324,cs),
(690,335,o),
(780,413,o),
(804,446,cs),
(811,456,o),
(821,470,o),
(810,475,cs),
(805,477,o),
(779,489,o),
(773,490,cs),
(708,502,o),
(644,518,o),
(578,525,cs),
(537,530,o),
(466,475,o),
(439,443,cs),
(432,434,o),
(391,380,o),
(384,370,c),
(366,382,o),
(272,466,o),
(255,478,cs),
(249,483,o),
(223,501,o),
(215,503,c),
(211,503,o),
(194,507,o),
(191,507,cs),
(161,511,o),
(103,468,o),
(81,448,cs),
(68,435,o),
(36,405,o),
(38,387,cs),
(38,385,o),
(42,385,o),
(44,385,cs),
(49,386,o),
(65,394,o),
(69,396,cs),
(74,399,o),
(80,389,o),
(85,385,cs),
(144,332,o),
(171,251,o),
(217,186,c),
(222,177,o),
(239,165,o),
(233,157,cs),
(228,150,o),
(197,109,o),
(192,102,cs),
(187,95,o),
(180,104,o),
(173,109,cs),
(168,113,o),
(140,134,o),
(134,137,cs),
(131,138,o),
(119,144,o),
(116,144,cs),
(111,143,o),
(106,146,o),
(102,145,cs),
(90,142,o),
(81,134,o),
(71,127,cs),
(58,118,o),
(23,88,o),
(18,73,cs),
(17,70,o),
(19,66,o),
(19,62,cs),
(17,46,o),
(44,9,o),
(55,-3,cs),
(63,-13,o),
(73,-23,o),
(85,-24,cs),
(97,-26,o),
(127,-8,o),
(138,-1,cs),
(168,18,o),
(196,43,o),
(220,70,cs),
(226,77,o),
(257,120,o),
(263,127,c),
(283,105,o),
(304,83,o),
(328,65,cs),
(373,30,o),
(425,1,o),
(479,-17,cs),
(493,-22,o),
(508,-27,o),
(522,-27,cs),
(534,-27,o),
(545,-25,o),
(556,-23,cs)
);
}
);
width = 828;
}
);
note = X;
unicode = 88;
},
{
glyphname = Y;
layers = (
{
layerId = m01;
shapes = (
{
closed = 1;
nodes = (
(647,-33,o),
(690,-14,o),
(721,17,cs),
(725,21,o),
(730,26,o),
(735,29,cs),
(771,53,o),
(801,88,o),
(823,126,cs),
(834,143,o),
(841,174,o),
(827,189,cs),
(774,244,o),
(733,310,o),
(692,375,cs),
(651,439,o),
(624,512,o),
(593,582,cs),
(588,592,o),
(576,617,o),
(565,620,cs),
(553,624,o),
(528,609,o),
(518,602,cs),
(496,585,o),
(474,562,o),
(467,534,cs),
(459,504,o),
(463,472,o),
(465,441,cs),
(465,437,o),
(469,417,o),
(468,413,cs),
(468,410,o),
(461,404,o),
(459,401,cs),
(442,379,o),
(424,357,o),
(407,335,cs),
(405,332,o),
(405,339,o),
(402,342,cs),
(401,343,o),
(397,345,o),
(396,345,c),
(395,347,o),
(393,354,o),
(392,355,c),
(382,382,o),
(332,520,o),
(318,545,cs),
(316,548,o),
(306,548,o),
(303,549,cs),
(288,554,o),
(272,543,o),
(260,534,cs),
(246,524,o),
(221,493,o),
(220,476,cs),
(220,471,o),
(217,466,o),
(216,461,cs),
(216,456,o),
(219,438,o),
(221,433,cs),
(227,410,o),
(266,267,o),
(272,244,cs),
(274,238,o),
(272,231,o),
(273,224,cs),
(275,215,o),
(286,188,o),
(294,182,cs),
(315,164,o),
(349,186,o),
(370,204,cs),
(416,241,o),
(449,292,o),
(483,341,c),
(502,271,o),
(531,205,o),
(566,142,cs),
(571,132,o),
(602,79,o),
(608,70,cs),
(611,65,o),
(611,65,o),
(605,63,cs),
(551,47,o),
(490,45,o),
(434,59,cs),
(344,81,o),
(263,130,o),
(180,173,cs),
(155,186,o),
(125,195,o),
(96,195,cs),
(87,195,o),
(60,184,o),
(52,178,cs),
(37,168,o),
(8,138,o),
(7,121,cs),
(6,112,o),
(15,93,o),
(21,87,cs),
(54,52,o),
(219,-47,o),
(263,-67,cs),
(299,-83,o),
(338,-98,o),
(377,-102,cs),
(455,-109,o),
(535,-83,o),
(607,-51,cs)
);
}
);
width = 844;
}
);
note = Y;
unicode = (89,221,376);
},
{
glyphname = Z;
layers = (
{
layerId = m01;
shapes = (
{
closed = 1;
nodes = (
(674,-22,o),
(791,72,o),
(811,124,cs),
(817,140,o),
(791,143,o),
(774,144,cs),
(673,147,o),
(575,178,o),
(475,195,cs),
(427,203,o),
(380,207,o),
(332,212,cs),
(326,213,o),
(324,212,o),
(329,215,cs),
(375,240,o),
(414,275,o),
(451,312,cs),
(483,344,o),
(514,377,o),
(541,413,cs),
(560,438,o),
(581,476,o),
(552,483,cs),
(549,484,o),
(533,488,o),
(530,489,cs),
(519,491,o),
(508,489,o),
(497,491,cs),
(422,504,o),
(346,513,o),
(274,537,cs),
(258,542,o),
(246,552,o),
(231,558,c),
(230,559,o),
(220,559,o),
(219,559,c),
(220,559,o),
(218,561,o),
(216,562,c),
(213,568,o),
(205,579,o),
(210,584,cs),
(221,596,o),
(239,618,o),
(222,615,cs),
(188,608,o),
(130,558,o),
(117,525,c),
(114,520,o),
(110,500,o),
(111,494,cs),
(111,487,o),
(116,480,o),
(115,472,cs),
(115,471,o),
(113,463,o),
(113,461,cs),
(112,446,o),
(141,423,o),
(154,415,cs),
(204,380,o),
(261,358,o),
(311,325,c),
(315,320,o),
(333,298,o),
(335,292,cs),
(336,290,o),
(340,285,o),
(338,282,cs),
(324,261,o),
(307,243,o),
(293,221,cs),
(289,215,o),
(291,216,o),
(285,217,cs),
(254,219,o),
(154,219,o),
(127,205,cs),
(96,188,o),
(19,128,o),
(7,95,cs),
(5,90,o),
(15,86,o),
(20,82,cs),
(25,79,o),
(29,72,o),
(35,69,cs),
(43,65,o),
(88,46,o),
(97,43,cs),
(117,37,o),
(237,0,o),
(257,-6,cs),
(282,-12,o),
(431,-49,o),
(456,-55,cs),
(511,-69,o),
(574,-72,o),
(624,-47,cs)
);
}
);
width = 815;
}
);
note = Z;
unicode = 90;
},
{
glyphname = underscore;
layers = (
{
layerId = m01;
shapes = (
{
closed = 1;
nodes = (
(260,-33,o),
(483,-21,o),
(707,-7,cs),
(739,-5,o),
(769,17,o),
(792,40,cs),
(810,58,o),
(825,79,o),
(835,102,cs),
(841,117,o),
(841,135,o),
(826,141,c),
(824,141,o),
(813,141,o),
(810,141,cs),
(583,125,o),
(356,107,o),
(128,88,cs),
(90,84,o),
(55,53,o),
(32,22,cs),
(21,8,o),
(5,-21,o),
(13,-36,cs),
(17,-43,o),
(28,-44,o),
(36,-44,cs)
);
}
);
width = 860;
}
);
note = underscore;
unicode = 95;
},
{
glyphname = a;
layers = (
{
layerId = m01;
shapes = (
{
closed = 1;
nodes = (
(701,-74,o),
(755,-46,o),
(803,-11,cs),
(818,0,o),
(858,30,o),
(862,48,cs),
(870,89,o),
(870,134,o),
(857,173,cs),
(847,204,o),
(831,234,o),
(808,257,cs),
(789,276,o),
(670,391,o),
(650,410,cs),
(634,426,o),
(537,529,o),
(521,546,cs),
(507,560,o),
(439,634,o),
(423,646,cs),
(418,650,o),
(395,664,o),
(389,666,cs),
(373,670,o),
(332,652,o),
(317,644,cs),
(292,631,o),
(268,616,o),
(247,598,cs),
(243,594,o),
(231,583,o),
(230,578,cs),
(229,574,o),
(232,569,o),
(234,565,cs),
(235,562,o),
(240,543,o),
(242,540,c),
(250,521,o),
(304,427,o),
(315,409,cs),
(317,405,o),
(315,405,o),
(310,404,cs),
(226,391,o),
(143,359,o),
(73,312,cs),
(53,298,o),
(32,281,o),
(21,259,cs),
(16,249,o),
(14,235,o),
(16,223,cs),
(21,190,o),
(42,159,o),
(63,132,cs),
(76,114,o),
(89,95,o),
(104,78,cs),
(110,70,o),
(146,32,o),
(152,24,cs),
(161,11,o),
(169,-3,o),
(179,-15,cs),
(183,-20,o),
(184,-28,o),
(189,-30,cs),
(215,-37,o),
(279,-2,o),
(302,11,cs),
(331,27,o),
(360,44,o),
(385,65,cs),
(395,73,o),
(418,92,o),
(417,105,cs),
(417,112,o),
(411,120,o),
(405,124,cs),
(379,142,o),
(354,161,o),
(329,181,c),
(362,204,o),
(388,236,o),
(418,262,c),
(434,243,o),
(535,125,o),
(551,106,cs),
(575,78,o),
(590,42,o),
(597,5,cs),
(602,-26,o),
(600,-58,o),
(605,-90,cs),
(607,-105,o),
(629,-99,o),
(644,-94,cs)
);
},
{
closed = 1;
nodes = (
(209,306,o),
(204,317,o),
(201,329,cs),
(200,333,o),
(203,335,o),
(207,336,cs),
(224,338,o),
(329,354,o),
(346,357,c),
(363,333,o),
(380,309,o),
(398,287,c),
(363,263,o),
(329,237,o),
(298,207,c),
(267,233,o),
(237,262,o),
(215,296,cs)
);
}
);
width = 885;
}
);
note = a;
unicode = (97,224,225,226,227,228,229);
},
{
glyphname = b;
layers = (
{
layerId = m01;
shapes = (
{
closed = 1;
nodes = (
(523,60,o),
(634,141,o),
(710,244,cs),
(731,271,o),
(749,302,o),
(759,335,cs),
(766,360,o),
(768,387,o),
(763,412,cs),
(754,457,o),
(718,499,o),
(673,516,cs),
(645,526,o),
(614,528,o),
(584,527,cs),
(536,525,o),
(489,508,o),
(445,490,cs),
(397,469,o),
(350,444,o),
(307,415,c),
(326,437,o),
(346,459,o),
(359,484,cs),
(362,490,o),
(363,502,o),
(359,508,cs),
(357,511,o),
(369,521,o),
(365,523,c),
(354,531,o),
(292,540,o),
(279,544,cs),
(256,551,o),
(240,565,o),
(230,587,cs),
(227,592,o),
(218,588,o),
(214,592,cs),
(209,599,o),
(194,590,o),
(185,587,cs),
(160,576,o),
(134,563,o),
(114,543,cs),
(109,539,o),
(105,533,o),
(104,527,cs),
(104,521,o),
(97,517,o),
(98,512,cs),
(102,488,o),
(123,463,o),
(146,456,c),
(121,449,o),
(51,410,o),
(34,389,cs),
(29,382,o),
(28,371,o),
(27,362,cs),
(26,346,o),
(32,266,o),
(33,251,cs),
(36,194,o),
(46,136,o),
(65,83,cs),
(73,62,o),
(96,19,o),
(117,14,cs),
(128,11,o),
(160,24,o),
(170,28,cs),
(201,41,o),
(230,58,o),
(257,78,cs),
(265,83,o),
(260,69,o),
(261,60,cs),
(261,42,o),
(263,21,o),
(274,7,cs),
(300,-28,o),
(366,-6,o),
(405,11,cs)
);
},
{
closed = 1;
nodes = (
(166,448,o),
(163,454,o),
(171,453,cs),
(185,452,o),
(243,446,o),
(257,450,c),
(258,450,o),
(262,453,o),
(263,451,c),
(269,445,o),
(261,430,o),
(257,422,cs),
(250,409,o),
(206,359,o),
(195,348,c),
(191,360,o),
(173,429,o),
(169,440,cs)
);
},
{
closed = 1;
nodes = (
(488,241,o),
(495,281,o),
(502,320,cs),
(505,334,o),
(516,386,o),
(512,399,c),
(512,398,o),
(511,401,o),
(510,402,c),
(488,409,o),
(463,396,o),
(442,386,cs),
(412,372,o),
(383,355,o),
(356,336,cs),
(340,325,o),
(325,314,o),
(313,300,cs),
(298,280,o),
(278,191,o),
(273,166,cs),
(272,160,o),
(271,160,o),
(268,164,cs),
(247,190,o),
(234,222,o),
(225,254,c),
(224,256,o),
(223,260,o),
(225,261,cs),
(234,268,o),
(245,275,o),
(247,286,cs),
(254,317,o),
(275,344,o),
(297,367,cs),
(343,415,o),
(413,449,o),
(479,447,cs),
(513,445,o),
(550,429,o),
(573,404,cs),
(641,328,o),
(573,209,o),
(502,135,cs),
(503,136,o),
(501,134,o),
(500,134,c),
(487,153,o),
(485,178,o),
(486,202,cs)
);
}
);
width = 783;
}
);
note = b;
unicode = 98;
},
{
glyphname = c;
layers = (
{
layerId = m01;
shapes = (
{
closed = 1;
nodes = (
(310,42,o),
(356,72,o),
(400,105,cs),
(405,109,o),
(428,129,o),
(432,134,cs),
(441,143,o),
(460,162,o),
(457,173,cs),
(455,182,o),
(441,180,o),
(432,178,cs),
(408,172,o),
(386,163,o),
(364,152,c),
(349,157,o),
(335,164,o),
(322,172,cs),
(320,173,o),
(312,176,o),
(311,177,cs),
(292,194,o),
(274,212,o),
(261,234,cs),
(259,237,o),
(247,251,o),
(245,253,c),
(241,260,o),
(221,289,o),
(219,297,cs),
(212,327,o),
(206,360,o),
(216,389,cs),
(219,397,o),
(235,423,o),
(241,428,cs),
(256,443,o),
(276,452,o),
(295,462,cs),
(300,465,o),
(300,464,o),
(300,459,c),
(295,421,o),
(307,382,o),
(315,345,cs),
(319,325,o),
(327,307,o),
(330,287,cs),
(332,273,o),
(342,257,o),
(355,253,cs),
(364,250,o),
(390,254,o),
(398,257,cs),
(456,276,o),
(511,306,o),
(559,344,cs),
(576,358,o),
(608,391,o),
(586,392,cs),
(575,392,o),
(559,415,o),
(551,422,c),
(546,428,o),
(532,457,o),
(528,464,c),
(518,488,o),
(488,555,o),
(465,564,cs),
(446,572,o),
(396,539,o),
(376,532,cs),
(349,522,o),
(322,509,o),
(296,495,cs),
(228,458,o),
(158,417,o),
(104,360,cs),
(64,318,o),
(34,260,o),
(28,201,cs),
(25,167,o),
(17,132,o),
(24,98,cs),
(25,90,o),
(38,55,o),
(42,48,cs),
(44,45,o),
(55,29,o),
(57,25,cs),
(60,19,o),
(62,12,o),
(66,7,cs),
(81,-11,o),
(107,-21,o),
(130,-22,cs),
(176,-24,o),
(220,-2,o),
(261,18,cs)
);
}
);
width = 603;
}
);
note = c;
unicode = (99,231);
},
{
glyphname = d;
layers = (
{
layerId = m01;
shapes = (
{
closed = 1;
nodes = (
(404,6,o),
(432,20,o),
(457,36,cs),
(477,48,o),
(536,84,o),
(544,105,cs),
(546,112,o),
(540,122,o),
(546,125,cs),
(592,149,o),
(637,179,o),
(673,216,cs),
(697,241,o),
(723,267,o),
(732,299,cs),
(736,314,o),
(733,332,o),
(727,346,cs),
(724,353,o),
(713,353,o),
(707,358,cs),
(694,370,o),
(680,380,o),
(665,388,cs),
(595,426,o),
(523,460,o),
(458,505,cs),
(415,533,o),
(374,565,o),
(343,606,cs),
(339,611,o),
(317,643,o),
(314,649,c),
(308,657,o),
(293,653,o),
(284,650,cs),
(279,649,o),
(279,655,o),
(283,658,cs),
(288,663,o),
(296,670,o),
(293,675,cs),
(290,679,o),
(281,676,o),
(276,674,c),
(259,670,o),
(203,638,o),
(190,627,cs),
(183,621,o),
(170,613,o),
(175,605,cs),
(178,601,o),
(188,605,o),
(193,606,cs),
(192,606,o),
(195,601,o),
(195,600,c),
(187,593,o),
(177,587,o),
(175,577,cs),
(171,559,o),
(191,494,o),
(196,476,cs),
(200,462,o),
(227,414,o),
(235,403,cs),
(236,401,o),
(234,399,o),
(233,397,c),
(226,390,o),
(188,344,o),
(181,336,c),
(129,325,o),
(81,296,o),
(39,262,cs),
(29,255,o),
(9,239,o),
(11,227,cs),
(12,223,o),
(18,208,o),
(20,205,cs),
(40,178,o),
(70,159,o),
(98,140,cs),
(173,90,o),
(249,40,o),
(328,-5,cs),
(337,-10,o),
(365,-5,o),
(375,-2,cs)
);
},
{
closed = 1;
nodes = (
(270,262,o),
(243,280,o),
(218,300,cs),
(214,304,o),
(214,305,o),
(217,309,cs),
(223,317,o),
(257,365,o),
(262,372,c),
(316,325,o),
(379,288,o),
(436,245,cs),
(446,237,o),
(455,228,o),
(464,218,c),
(469,214,o),
(465,205,o),
(467,199,c),
(471,193,o),
(475,186,o),
(476,178,cs),
(478,171,o),
(476,163,o),
(474,156,c),
(415,186,o),
(355,214,o),
(298,246,cs)
);
}
);
width = 746;
}
);
note = d;
unicode = 100;
},
{
glyphname = e;
layers = (
{
layerId = m01;
shapes = (
{
closed = 1;
nodes = (
(395,-33,o),
(467,12,o),
(531,60,cs),
(556,79,o),
(584,107,o),
(583,138,c),
(562,150,o),
(513,126,o),
(491,115,c),
(436,135,o),
(391,176,o),
(352,219,c),
(398,233,o),
(480,278,o),
(487,325,cs),
(489,342,o),
(483,360,o),
(477,376,cs),
(455,425,o),
(413,464,o),
(372,498,cs),
(338,525,o),
(305,555,o),
(266,571,cs),
(240,581,o),
(209,584,o),
(183,577,c),
(172,580,o),
(144,567,o),
(134,563,cs),
(108,550,o),
(82,535,o),
(60,515,cs),
(55,511,o),
(41,498,o),
(40,491,cs),
(38,480,o),
(24,472,o),
(24,460,cs),
(24,379,o),
(38,297,o),
(62,220,cs),
(81,159,o),
(106,98,o),
(149,50,cs),
(184,12,o),
(265,-61,o),
(316,-50,cs)
);
},
{
closed = 1;
nodes = (
(274,345,o),
(250,413,o),
(230,482,cs),
(229,487,o),
(228,488,o),
(233,486,cs),
(254,475,o),
(272,459,o),
(290,443,cs),
(314,422,o),
(337,399,o),
(357,374,cs),
(376,350,o),
(406,300,o),
(391,273,c),
(392,274,o),
(390,272,o),
(389,270,c),
(362,271,o),
(335,276,o),
(308,282,c)
);
}
);
width = 593;
}
);
note = e;
unicode = (101,232,233,234,235);
},
{
glyphname = f;
layers = (
{
layerId = m01;
shapes = (
{
closed = 1;
nodes = (
(288,-67,o),
(320,-53,o),
(349,-35,cs),
(371,-21,o),
(438,21,o),
(448,45,cs),
(456,64,o),
(438,115,o),
(430,134,c),
(428,137,o),
(417,154,o),
(415,157,cs),
(412,163,o),
(393,198,o),
(390,203,cs),
(388,208,o),
(388,208,o),
(394,210,cs),
(441,225,o),
(488,239,o),
(535,254,cs),
(565,263,o),
(594,279,o),
(620,298,cs),
(625,302,o),
(642,315,o),
(644,322,cs),
(646,331,o),
(631,327,o),
(623,325,cs),
(537,300,o),
(451,275,o),
(366,246,cs),
(361,244,o),
(360,244,o),
(357,249,cs),
(348,260,o),
(295,324,o),
(287,336,cs),
(277,351,o),
(216,445,o),
(206,460,cs),
(193,480,o),
(186,504,o),
(179,527,cs),
(177,536,o),
(179,545,o),
(180,554,cs),
(180,555,o),
(175,556,o),
(175,556,c),
(172,561,o),
(186,559,o),
(192,558,cs),
(214,554,o),
(235,543,o),
(253,529,cs),
(294,500,o),
(331,465,o),
(368,431,cs),
(378,423,o),
(393,433,o),
(404,440,cs),
(411,445,o),
(420,450,o),
(413,457,cs),
(383,490,o),
(358,530,o),
(323,558,cs),
(298,578,o),
(268,595,o),
(237,597,cs),
(193,599,o),
(124,560,o),
(103,522,cs),
(100,516,o),
(93,512,o),
(91,506,cs),
(88,499,o),
(82,467,o),
(82,459,cs),
(81,445,o),
(88,386,o),
(91,372,cs),
(99,341,o),
(106,310,o),
(118,280,cs),
(133,242,o),
(145,202,o),
(158,162,c),
(131,149,o),
(32,100,o),
(14,76,cs),
(-1,56,o),
(43,72,o),
(65,83,cs),
(97,100,o),
(129,116,o),
(162,131,cs),
(171,135,o),
(171,122,o),
(174,113,cs),
(182,87,o),
(193,63,o),
(200,37,cs),
(204,23,o),
(215,-63,o),
(218,-77,cs),
(219,-81,o),
(220,-82,o),
(224,-83,cs),
(230,-85,o),
(249,-80,o),
(255,-78,cs)
);
}
);
width = 652;
}
);
note = f;
unicode = 102;
},
{
glyphname = g;
lastChange = "2024-05-30 19:28:01 +0000";
layers = (
{
layerId = m01;
shapes = (
{
closed = 1;
nodes = (
(347,-155,o),
(401,-122,o),
(449,-85,cs),
(468,-71,o),
(517,-28,o),
(514,-5,cs),
(510,24,o),
(453,56,o),
(428,69,cs),
(426,70,o),
(411,73,o),
(409,74,cs),
(383,86,o),
(356,94,o),
(330,105,cs),
(302,116,o),
(186,167,o),
(164,187,cs),
(163,188,o),
(159,191,o),
(158,191,cs),
(155,192,o),
(146,190,o),
(145,191,cs),
(144,192,o),
(144,194,o),
(143,195,cs),
(141,197,o),
(135,194,o),
(134,197,c),
(134,197,o),
(135,199,o),
(134,200,c),
(161,210,o),
(190,214,o),
(215,227,c),
(219,230,o),
(221,223,o),
(224,219,cs),
(250,188,o),
(307,212,o),
(342,231,cs),
(384,253,o),
(423,288,o),
(442,331,cs),
(445,337,o),
(452,333,o),
(458,331,cs),
(486,325,o),
(555,364,o),
(579,379,cs),
(600,391,o),
(659,426,o),
(665,450,cs),
(666,455,o),
(662,459,o),
(657,460,c),
(626,473,o),
(446,532,o),
(416,547,cs),
(402,554,o),
(383,547,o),
(368,542,cs),
(352,536,o),
(337,531,o),
(322,523,cs),
(301,512,o),
(238,467,o),
(226,446,cs),
(225,444,o),
(228,438,o),
(229,436,cs),
(230,432,o),
(243,429,o),
(240,426,cs),
(232,419,o),
(224,412,o),
(219,403,cs),
(209,388,o),
(204,369,o),
(202,351,cs),
(198,317,o),
(202,282,o),
(212,249,c),
(163,236,o),
(113,218,o),
(51,163,cs),
(41,155,o),
(31,145,o),
(28,132,c),
(26,127,o),
(19,125,o),
(18,119,cs),
(17,116,o),
(20,112,o),
(18,110,cs),
(15,106,o),
(9,100,o),
(11,96,cs),
(30,61,o),
(66,38,o),
(99,15,cs),
(132,-9,o),
(165,-34,o),
(198,-60,cs),
(202,-63,o),
(203,-69,o),
(207,-72,c),
(218,-85,o),
(232,-95,o),
(243,-109,c),
(224,-122,o),
(179,-152,o),
(178,-176,c),
(210,-195,o),
(255,-190,o),
(290,-176,cs)
);
},
{
closed = 1;
nodes = (
(304,268,o),
(290,288,o),
(285,308,cs),
(278,339,o),
(276,371,o),
(281,402,c),
(308,390,o),
(335,379,o),
(362,367,c),
(367,342,o),
(368,315,o),
(360,291,cs),
(358,282,o),
(348,260,o),
(340,256,cs),
(336,254,o),
(326,257,o),
(323,259,cs)
);
}
);
width = 676;
}
);
note = g;
unicode = 103;
},
{
glyphname = h;
layers = (
{
layerId = m01;
shapes = (
{
closed = 1;
nodes = (
(507,-90,o),
(539,-71,o),
(571,-52,cs),
(594,-38,o),
(615,-21,o),
(633,-2,cs),
(638,3,o),
(639,11,o),
(637,17,cs),
(624,73,o),
(609,128,o),
(594,184,cs),
(578,243,o),
(568,305,o),
(540,359,cs),
(535,368,o),
(528,379,o),
(517,381,cs),
(508,382,o),
(481,371,o),
(473,367,cs),
(430,348,o),
(389,323,o),
(358,289,cs),
(327,254,o),
(295,218,o),
(264,183,c),
(251,222,o),
(244,262,o),
(239,303,cs),
(233,348,o),
(204,603,o),
(202,649,cs),
(202,652,o),
(201,665,o),
(202,669,cs),
(202,670,o),
(207,677,o),
(208,679,cs),
(216,693,o),
(183,685,o),
(168,679,cs),
(136,667,o),
(60,629,o),
(49,597,cs),
(47,592,o),
(46,569,o),
(45,564,c),
(42,440,o),
(46,316,o),
(55,192,cs),
(56,178,o),
(64,95,o),
(66,81,cs),
(69,58,o),
(73,35,o),
(86,16,cs),
(89,11,o),
(99,2,o),
(105,3,c),
(119,3,o),
(134,7,o),
(147,12,cs),
(193,30,o),
(237,55,o),
(275,85,cs),
(289,96,o),
(308,111,o),
(306,129,cs),
(306,133,o),
(307,141,o),
(302,142,cs),
(293,145,o),
(279,136,o),
(286,142,cs),
(306,158,o),
(388,250,o),
(405,269,c),
(410,234,o),
(410,198,o),
(415,163,cs),
(425,77,o),
(432,-10,o),
(440,-96,cs),
(441,-109,o),
(458,-105,o),
(471,-101,cs)
);
}
);
width = 651;
}
);
note = h;
unicode = 104;
},
{
glyphname = i;
layers = (
{
layerId = m01;
shapes = (
{
closed = 1;
nodes = (
(296,582,o),
(304,589,o),
(309,597,cs),
(318,611,o),
(300,616,o),
(283,611,cs),
(270,608,o),
(256,615,o),
(243,612,cs),
(212,605,o),
(184,588,o),
(158,569,cs),
(150,564,o),
(129,548,o),
(127,539,cs),
(125,533,o),
(143,525,o),
(145,520,cs),
(146,518,o),
(147,513,o),
(147,512,c),
(147,512,o),
(150,509,o),
(151,509,cs),
(184,507,o),
(263,555,o),
(288,576,cs)
);
},
{
closed = 1;
nodes = (
(259,-20,o),
(289,-4,o),
(318,12,cs),
(350,30,o),
(382,51,o),
(409,77,cs),
(419,86,o),
(435,102,o),
(429,114,cs),
(426,119,o),
(416,119,o),
(411,118,cs),
(400,115,o),
(401,115,o),
(394,124,cs),
(380,144,o),
(377,172,o),
(377,197,cs),
(377,228,o),
(377,378,o),
(371,408,cs),
(368,424,o),
(361,441,o),
(348,449,cs),
(344,452,o),
(339,454,o),
(334,457,cs),
(328,460,o),
(309,452,o),
(303,451,cs),
(302,451,o),
(294,451,o),
(293,451,cs),
(270,450,o),
(247,443,o),
(225,435,cs),
(176,418,o),
(36,361,o),
(10,317,cs),
(-2,297,o),
(41,312,o),
(61,322,cs),
(95,339,o),
(128,359,o),
(165,362,c),
(165,360,o),
(162,356,o),
(164,354,c),
(165,352,o),
(175,348,o),
(177,347,c),
(194,334,o),
(194,288,o),
(193,267,cs),
(190,238,o),
(183,209,o),
(178,180,cs),
(172,147,o),
(166,115,o),
(160,82,cs),
(156,55,o),
(153,-12,o),
(170,-32,cs),
(181,-45,o),
(211,-36,o),
(228,-31,cs)
);
}
);
width = 446;
}
);
note = i;
unicode = (105,236,237,238,239);
},
{
glyphname = j;
layers = (
{
layerId = m01;
shapes = (
{
closed = 1;
nodes = (
(379,461,o),
(402,474,o),
(424,488,cs),
(439,498,o),
(455,509,o),
(468,522,cs),
(474,529,o),
(480,541,o),
(471,543,cs),
(466,545,o),
(471,549,o),
(473,554,cs),
(475,558,o),
(470,573,o),
(469,577,cs),
(466,585,o),
(456,584,o),
(448,582,cs),
(421,576,o),
(396,562,o),
(372,548,cs),
(355,537,o),
(306,509,o),
(301,490,cs),
(300,485,o),
(306,471,o),
(308,467,c),
(308,465,o),
(319,460,o),
(319,458,cs),
(319,457,o),
(318,456,o),
(317,455,c),
(312,438,o),
(339,446,o),
(355,452,cs)
);
},
{
closed = 1;
nodes = (
(493,-31,o),
(536,-14,o),
(574,11,cs),
(596,25,o),
(619,41,o),
(636,61,cs),
(643,70,o),
(660,99,o),
(660,111,cs),
(660,113,o),
(653,118,o),
(653,120,c),
(663,165,o),
(661,213,o),
(656,260,cs),
(652,296,o),
(629,392,o),
(601,415,cs),
(596,419,o),
(591,422,o),
(587,425,cs),
(585,426,o),
(580,431,o),
(578,431,cs),
(540,432,o),
(503,412,o),
(470,394,cs),
(425,369,o),
(388,333,o),
(355,295,cs),
(349,289,o),
(327,266,o),
(325,258,cs),
(323,251,o),
(334,253,o),
(341,255,cs),
(367,262,o),
(390,276,o),
(412,291,cs),
(437,309,o),
(455,335,o),
(476,357,cs),
(480,361,o),
(487,356,o),
(492,352,cs),
(506,342,o),
(515,325,o),
(523,309,cs),
(535,285,o),
(542,259,o),
(549,233,cs),
(560,184,o),
(565,132,o),
(558,83,cs),
(557,73,o),
(555,59,o),
(546,63,cs),
(499,79,o),
(456,108,o),
(418,140,cs),
(371,178,o),
(328,222,o),
(276,253,cs),
(264,261,o),
(250,267,o),
(235,268,cs),
(206,271,o),
(177,259,o),
(151,246,cs),
(111,227,o),
(72,206,o),
(38,178,cs),
(32,173,o),
(12,155,o),
(9,147,cs),
(6,135,o),
(22,139,o),
(34,139,cs),
(38,139,o),
(51,134,o),
(54,133,cs),
(72,126,o),
(145,73,o),
(161,62,cs),
(180,48,o),
(201,36,o),
(222,24,cs),
(256,2,o),
(292,-19,o),
(330,-33,cs),
(358,-44,o),
(388,-49,o),
(417,-49,cs),
(422,-49,o),
(444,-41,o),
(449,-40,cs)
);
}
);
width = 686;
}
);
note = j;
unicode = 106;
},
{
glyphname = k;
layers = (
{
layerId = m01;
shapes = (
{
closed = 1;
nodes = (
(688,-95,o),
(746,-59,o),
(797,-21,cs),
(803,-16,o),
(822,1,o),
(824,9,cs),
(828,21,o),
(808,17,o),
(796,17,cs),
(782,18,o),
(767,22,o),
(753,26,cs),
(697,42,o),
(643,65,o),
(588,87,cs),
(552,102,o),
(343,195,o),
(308,211,c),
(335,228,o),
(362,251,o),
(376,279,cs),
(382,292,o),
(386,307,o),
(390,321,cs),
(397,348,o),
(406,403,o),
(385,421,cs),
(365,439,o),
(324,413,o),
(301,400,cs),
(262,377,o),
(231,341,o),
(206,304,c),
(208,361,o),
(210,419,o),
(207,476,cs),
(206,504,o),
(200,561,o),
(174,573,cs),
(169,575,o),
(162,575,o),
(157,573,c),
(128,567,o),
(101,553,o),
(77,538,cs),
(64,529,o),
(29,504,o),
(25,490,cs),
(22,481,o),
(19,471,o),
(28,471,cs),
(44,472,o),
(58,480,o),
(73,487,c),
(99,414,o),
(46,48,o),
(54,-29,cs),
(56,-48,o),
(63,-76,o),
(82,-76,cs),
(117,-76,o),
(151,-57,o),
(181,-37,cs),
(189,-31,o),
(215,-14,o),
(218,-3,cs),
(219,1,o),
(211,12,o),
(209,16,cs),
(204,27,o),
(201,75,o),
(200,87,cs),
(200,92,o),
(202,91,o),
(206,88,c),
(247,65,o),
(466,-58,o),
(509,-76,cs),
(545,-91,o),
(586,-108,o),
(626,-103,cs)
);
},
{
closed = 1;
nodes = (
(271,316,o),
(289,344,o),
(308,369,c),
(309,368,o),
(311,369,o),
(311,368,c),
(317,362,o),
(321,352,o),
(321,343,cs),
(321,301,o),
(304,259,o),
(282,223,c),
(269,227,o),
(253,223,o),
(240,217,c),
(240,241,o),
(248,265,o),
(258,287,cs)
);
}
);
width = 829;
}
);
note = k;
unicode = 107;
},
{
glyphname = l;
layers = (
{
layerId = m01;
shapes = (
{
closed = 1;
nodes = (
(156,-32,o),
(200,-9,o),
(242,17,cs),
(276,37,o),
(312,60,o),
(332,95,cs),
(336,101,o),
(329,106,o),
(322,107,cs),
(309,108,o),
(301,123,o),
(296,135,cs),
(282,169,o),
(288,209,o),
(294,245,cs),
(300,281,o),
(357,468,o),
(367,503,cs),
(369,509,o),
(376,543,o),
(377,550,cs),
(381,573,o),
(382,598,o),
(376,621,cs),
(374,630,o),
(364,628,o),
(355,626,c),
(341,639,o),
(317,633,o),
(299,628,cs),
(257,617,o),
(218,600,o),
(179,582,cs),
(146,566,o),
(110,551,o),
(83,525,cs),
(79,521,o),
(71,514,o),
(74,508,cs),
(75,506,o),
(81,507,o),
(83,507,cs),
(97,508,o),
(158,535,o),
(172,540,cs),
(190,546,o),
(223,556,o),
(210,541,cs),
(205,534,o),
(206,526,o),
(203,519,c),
(190,473,o),
(164,431,o),
(144,387,cs),
(101,292,o),
(53,197,o),
(27,95,cs),
(19,64,o),
(16,31,o),
(19,-1,cs),
(20,-8,o),
(22,-30,o),
(27,-35,cs),
(33,-42,o),
(39,-50,o),
(48,-53,cs),
(60,-58,o),
(97,-52,o),
(110,-48,cs)
);
}
);
width = 402;
}
);
note = l;
unicode = 108;
},
{
glyphname = m;
layers = (
{
layerId = m01;
shapes = (
{
closed = 1;
nodes = (
(412,-2,o),
(459,27,o),
(503,56,cs),
(520,68,o),
(563,100,o),
(566,120,c),
(568,127,o),
(568,127,o),
(562,130,cs),
(559,132,o),
(560,136,o),
(558,139,c),
(554,149,o),
(525,207,o),
(521,217,cs),
(517,225,o),
(506,241,o),
(511,249,cs),
(526,272,o),
(546,292,o),
(566,312,cs),
(589,334,o),
(613,356,o),
(638,377,c),
(641,349,o),
(638,321,o),
(639,293,cs),
(639,285,o),
(645,237,o),
(645,230,cs),
(647,182,o),
(652,134,o),
(658,86,cs),
(659,79,o),
(656,70,o),
(658,63,cs),
(664,47,o),
(669,30,o),
(675,14,cs),
(676,10,o),
(678,6,o),
(682,5,cs),
(694,1,o),
(728,14,o),
(739,19,cs),
(783,38,o),
(825,63,o),
(863,92,cs),
(875,100,o),
(902,121,o),
(901,136,cs),
(901,144,o),
(891,187,o),
(890,195,c),
(889,198,o),
(880,212,o),
(879,215,cs),
(855,271,o),
(825,325,o),
(798,380,cs),
(792,394,o),
(756,440,o),
(745,450,cs),
(731,461,o),
(709,451,o),
(692,445,cs),
(651,429,o),
(616,401,o),
(582,372,cs),
(550,345,o),
(518,318,o),
(488,289,c),
(480,305,o),
(452,368,o),
(439,379,cs),
(427,389,o),
(411,396,o),
(396,394,cs),
(387,393,o),
(378,390,o),
(369,386,cs),
(333,373,o),
(299,353,o),
(268,330,cs),
(238,307,o),
(214,276,o),
(194,243,c),
(194,242,o),
(194,243,o),
(194,244,cs),
(191,300,o),
(188,437,o),
(142,469,cs),
(135,474,o),
(112,478,o),
(103,477,cs),
(92,475,o),
(81,470,o),
(70,464,cs),
(59,459,o),
(24,438,o),
(18,427,cs),
(17,425,o),
(15,421,o),
(17,420,cs),
(19,419,o),
(31,419,o),
(33,418,c),
(83,410,o),
(80,332,o),
(79,282,cs),
(77,215,o),
(74,148,o),
(68,82,cs),
(67,68,o),
(43,37,o),
(52,27,cs),
(53,26,o),
(54,25,o),
(55,24,c),
(50,17,o),
(48,7,o),
(48,-2,cs),
(47,-11,o),
(57,-10,o),
(66,-8,cs),
(101,0,o),
(134,18,o),
(164,38,cs),
(176,46,o),
(214,74,o),
(220,88,cs),
(224,97,o),
(251,144,o),
(257,153,c),
(271,99,o),
(285,44,o),
(302,-9,cs),
(303,-12,o),
(307,-15,o),
(308,-19,c),
(307,-18,o),
(308,-21,o),
(309,-22,cs),
(319,-34,o),
(347,-24,o),
(362,-19,cs)
);
}
);
width = 916;
}
);
note = m;
unicode = 109;
},
{
glyphname = n;
layers = (
{
layerId = m01;
shapes = (
{
closed = 1;
nodes = (
(659,-76,o),
(691,-58,o),
(722,-37,cs),
(744,-22,o),
(766,-6,o),
(784,13,cs),
(789,19,o),
(799,31,o),
(795,38,cs),
(744,147,o),
(690,256,o),
(631,363,cs),
(627,370,o),
(602,410,o),
(597,417,cs),
(593,422,o),
(591,423,o),
(583,423,c),
(575,437,o),
(566,453,o),
(552,460,cs),
(540,465,o),
(528,471,o),
(515,469,cs),
(498,467,o),
(482,459,o),
(467,453,cs),
(421,434,o),
(373,410,o),
(343,371,cs),
(332,357,o),
(293,282,o),
(286,266,c),
(277,306,o),
(267,349,o),
(238,378,cs),
(209,408,o),
(133,408,o),
(94,393,cs),
(70,384,o),
(48,371,o),
(28,355,c),
(23,352,o),
(10,341,o),
(8,335,cs),
(7,329,o),
(14,330,o),
(20,330,c),
(48,335,o),
(81,335,o),
(106,320,cs),
(129,306,o),
(145,280,o),
(156,255,cs),
(177,206,o),
(184,152,o),
(194,100,cs),
(195,95,o),
(187,69,o),
(189,64,c),
(189,63,o),
(198,59,o),
(198,57,c),
(199,56,o),
(195,50,o),
(194,48,c),
(192,36,o),
(212,43,o),
(223,47,cs),
(250,58,o),
(276,73,o),
(299,91,cs),
(309,99,o),
(318,110,o),
(323,122,cs),
(331,138,o),
(380,239,o),
(387,256,c),
(435,134,o),
(483,13,o),
(536,-107,cs),
(537,-110,o),
(540,-114,o),
(544,-115,cs),
(561,-120,o),
(609,-100,o),
(625,-92,cs)
);
}
);
width = 805;
}
);
note = n;
unicode = (110,241);
},
{
glyphname = o;
layers = (
{
layerId = m01;
shapes = (
{
closed = 1;
nodes = (
(240,-20,o),
(268,-13,o),
(295,0,cs),
(350,25,o),
(398,69,o),
(432,119,cs),
(458,157,o),
(475,205,o),
(474,251,cs),
(474,255,o),
(476,256,o),
(480,256,c),
(506,260,o),
(613,276,o),
(637,288,cs),
(672,306,o),
(702,337,o),
(721,371,cs),
(731,390,o),
(739,418,o),
(719,425,cs),
(708,428,o),
(663,421,o),
(652,420,cs),
(623,417,o),
(455,392,o),
(426,388,cs),
(420,387,o),
(412,385,o),
(408,389,cs),
(355,439,o),
(277,473,o),
(205,469,cs),
(169,467,o),
(132,451,o),
(104,427,cs),
(79,406,o),
(53,375,o),
(55,343,cs),
(55,333,o),
(75,307,o),
(81,299,cs),
(85,293,o),
(88,287,o),
(93,282,cs),
(97,279,o),
(97,278,o),
(93,274,cs),
(57,235,o),
(29,185,o),
(23,133,cs),
(21,117,o),
(22,101,o),
(24,85,cs),
(37,0,o),
(126,-43,o),
(211,-26,cs)
);
},
{
closed = 1;
nodes = (
(109,194,o),
(111,229,o),
(127,256,c),
(151,243,o),
(180,237,o),
(208,235,cs),
(247,231,o),
(288,235,o),
(327,239,cs),
(335,240,o),
(336,229,o),
(339,222,c),
(345,197,o),
(347,171,o),
(343,146,cs),
(342,142,o),
(339,127,o),
(337,123,c),
(334,120,o),
(320,115,o),
(315,113,cs),
(246,90,o),
(151,97,o),
(122,164,cs)
);
}
);
width = 742;
}
);
note = o;
unicode = (111,242,243,244,245,246,248);
},
{
glyphname = p;
layers = (
{
layerId = m01;
shapes = (
{
closed = 1;
nodes = (
(233,-169,o),
(274,-147,o),
(311,-122,cs),
(327,-112,o),
(369,-80,o),
(374,-62,c),
(374,-63,o),
(374,-59,o),
(374,-58,c),
(372,-56,o),
(368,-56,o),
(366,-54,cs),
(351,-34,o),
(345,-9,o),
(340,15,cs),
(334,41,o),
(330,67,o),
(325,93,c),
(364,109,o),
(400,131,o),
(433,156,cs),
(443,164,o),
(470,187,o),
(472,200,cs),
(477,221,o),
(504,349,o),
(507,370,cs),
(514,410,o),
(523,450,o),
(521,490,cs),
(521,493,o),
(519,511,o),
(518,515,cs),
(517,519,o),
(516,526,o),
(512,527,cs),
(510,528,o),
(501,526,o),
(499,528,cs),
(498,529,o),
(498,530,o),
(498,532,c),
(479,588,o),
(404,559,o),
(350,534,cs),
(313,517,o),
(277,496,o),
(242,474,cs),
(228,466,o),
(222,487,o),
(214,500,cs),
(201,521,o),
(187,540,o),
(170,557,cs),
(167,560,o),
(157,570,o),
(153,571,cs),
(140,575,o),
(104,557,o),
(92,550,cs),
(67,537,o),
(42,523,o),
(22,503,cs),
(16,497,o),
(9,489,o),
(15,483,cs),
(33,466,o),
(75,413,o),
(76,389,cs),
(76,383,o),
(72,377,o),
(74,371,cs),
(86,322,o),
(91,271,o),
(96,221,cs),
(100,180,o),
(114,-57,o),
(116,-99,cs),
(117,-121,o),
(122,-144,o),
(128,-165,cs),
(134,-190,o),
(166,-192,o),
(191,-183,cs)
);
},
{
closed = 1;
nodes = (
(249,450,o),
(249,454,o),
(252,456,cs),
(270,467,o),
(288,477,o),
(307,487,cs),
(334,501,o),
(376,520,o),
(395,496,c),
(398,491,o),
(404,478,o),
(403,473,cs),
(402,470,o),
(391,459,o),
(390,456,c),
(389,455,o),
(388,446,o),
(388,444,cs),
(374,361,o),
(339,283,o),
(307,204,c),
(294,286,o),
(284,371,o),
(251,447,c)
);
}
);
width = 544;
}
);
note = p;
unicode = 112;
},
{
glyphname = q;
kernRight = H;
layers = (
{
layerId = m01;
shapes = (
{
closed = 1;
nodes = (
(346,-242,o),
(404,-205,o),
(455,-165,cs),
(465,-158,o),
(489,-139,o),
(490,-127,cs),
(499,51,o),
(521,229,o),
(529,407,cs),
(531,446,o),
(532,485,o),
(527,523,c),
(527,528,o),
(521,531,o),
(517,534,cs),
(515,535,o),
(515,540,o),
(512,540,c),
(500,544,o),
(468,526,o),
(457,520,cs),
(444,513,o),
(407,490,o),
(401,476,cs),
(397,467,o),
(392,454,o),
(382,456,cs),
(315,469,o),
(248,483,o),
(180,482,cs),
(130,482,o),
(41,443,o),
(20,398,cs),
(11,378,o),
(25,324,o),
(33,304,cs),
(51,256,o),
(74,211,o),
(98,167,cs),
(118,130,o),
(178,19,o),
(217,4,cs),
(229,-1,o),
(244,-2,o),
(256,2,cs),
(274,8,o),
(290,18,o),
(306,29,c),
(292,-61,o),
(279,-151,o),
(263,-240,cs),
(263,-242,o),
(261,-249,o),
(262,-252,cs),
(264,-258,o),
(276,-257,o),
(283,-256,cs)
);
},
{
closed = 1;
nodes = (
(168,285,o),
(148,321,o),
(132,359,cs),
(123,380,o),
(115,402,o),
(114,425,c),
(200,423,o),
(284,402,o),
(369,392,c),
(346,283,o),
(328,173,o),
(311,63,c),
(267,122,o),
(225,184,o),
(188,249,cs)
);
}
);
width = 564;
}
);
note = q;
unicode = 113;
},
{
glyphname = r;
layers = (
{
layerId = m01;
shapes = (
{
closed = 1;
nodes = (
(182,15,o),
(214,32,o),
(241,56,cs),
(250,64,o),
(272,81,o),
(270,93,cs),
(266,119,o),
(269,146,o),
(266,172,cs),
(261,203,o),
(235,394,o),
(232,425,c),
(231,428,o),
(234,426,o),
(236,424,cs),
(276,394,o),
(320,371,o),
(364,349,cs),
(371,346,o),
(375,338,o),
(382,334,cs),
(384,333,o),
(381,330,o),
(380,327,cs),
(377,312,o),
(402,317,o),
(417,322,cs),
(470,340,o),
(596,402,o),
(616,454,cs),
(618,458,o),
(620,469,o),
(619,473,cs),
(618,478,o),
(607,488,o),
(602,491,cs),
(595,496,o),
(556,521,o),
(548,525,cs),
(508,543,o),
(468,562,o),
(427,578,cs),
(413,584,o),
(342,624,o),
(329,632,cs),
(309,644,o),
(296,669,o),
(294,693,cs),
(293,699,o),
(286,700,o),
(280,699,cs),
(256,694,o),
(234,685,o),
(213,673,cs),
(182,657,o),
(152,639,o),
(127,616,cs),
(123,612,o),
(112,602,o),
(112,597,cs),
(112,584,o),
(112,571,o),
(115,559,cs),
(118,546,o),
(126,535,o),
(134,524,cs),
(135,523,o),
(137,516,o),
(138,515,cs),
(141,512,o),
(157,491,o),
(160,488,c),
(132,474,o),
(48,427,o),
(34,398,cs),
(32,394,o),
(32,388,o),
(32,383,cs),
(32,340,o),
(49,86,o),
(51,43,cs),
(52,34,o),
(64,-10,o),
(66,-19,cs),
(67,-23,o),
(70,-26,o),
(74,-26,cs),
(101,-26,o),
(126,-13,o),
(150,-1,cs)
);
}
);
width = 630;
}
);
note = r;
unicode = 114;
},
{
glyphname = s;
layers = (
{
layerId = m01;
shapes = (
{
closed = 1;
nodes = (
(226,-26,o),
(274,-1,o),
(319,26,c),
(321,28,o),
(335,30,o),
(338,31,cs),
(392,49,o),
(444,77,o),
(489,111,cs),
(503,122,o),
(537,150,o),
(538,168,cs),
(538,171,o),
(539,187,o),
(538,190,c),
(536,206,o),
(528,222,o),
(521,236,cs),
(508,261,o),
(492,285,o),
(471,305,cs),
(431,342,o),
(370,356,o),
(315,361,cs),
(290,363,o),
(194,375,o),
(172,387,cs),
(158,395,o),
(155,417,o),
(156,434,cs),
(156,438,o),
(158,440,o),
(162,439,cs),
(186,431,o),
(210,423,o),
(234,416,cs),
(254,410,o),
(332,396,o),
(353,398,cs),
(373,401,o),
(391,409,o),
(409,417,cs),
(442,432,o),
(538,489,o),
(556,519,cs),
(558,523,o),
(560,528,o),
(557,530,cs),
(551,534,o),
(526,543,o),
(520,544,cs),
(452,559,o),
(383,569,o),
(317,590,cs),
(275,603,o),
(235,623,o),
(198,647,cs),
(194,650,o),
(190,656,o),
(185,657,c),
(151,659,o),
(71,610,o),
(45,588,cs),
(40,584,o),
(24,569,o),
(22,563,cs),
(21,559,o),
(28,547,o),
(30,543,cs),
(33,536,o),
(48,506,o),
(53,500,cs),
(68,481,o),
(90,469,o),
(111,459,c),
(95,450,o),
(78,440,o),
(67,425,cs),
(51,405,o),
(46,376,o),
(50,350,cs),
(51,342,o),
(69,321,o),
(75,315,cs),
(101,288,o),
(143,283,o),
(173,262,cs),
(181,256,o),
(190,253,o),
(198,248,cs),
(256,209,o),
(292,136,o),
(304,67,c),
(289,66,o),
(273,72,o),
(258,77,cs),
(242,83,o),
(230,109,o),
(230,126,cs),
(230,135,o),
(236,148,o),
(228,148,cs),
(196,148,o),
(166,130,o),
(139,114,cs),
(120,103,o),
(69,72,o),
(62,51,cs),
(59,41,o),
(60,30,o),
(61,19,cs),
(63,-2,o),
(80,-18,o),
(91,-37,c),
(92,-38,o),
(99,-42,o),
(101,-43,cs),
(122,-55,o),
(152,-49,o),
(176,-41,cs)
);
}
);
width = 577;
}
);
note = s;
unicode = 115;
},
{
glyphname = t;
layers = (
{
layerId = m01;
shapes = (
{
closed = 1;
nodes = (
(467,18,o),
(516,43,o),
(556,78,cs),
(567,88,o),
(588,103,o),
(581,116,cs),
(568,140,o),
(491,286,o),
(478,310,cs),
(475,315,o),
(475,315,o),
(481,316,cs),
(519,324,o),
(557,331,o),
(595,338,cs),
(621,343,o),
(684,377,o),
(699,398,cs),
(701,401,o),
(705,405,o),
(701,407,cs),
(697,409,o),
(691,408,o),
(686,407,cs),
(609,392,o),
(531,378,o),
(454,363,cs),
(449,362,o),
(449,362,o),
(445,368,cs),
(408,434,o),
(370,509,o),
(303,545,cs),
(266,565,o),
(195,518,o),
(160,494,cs),
(147,486,o),
(111,458,o),
(108,443,cs),
(103,428,o),
(132,439,o),
(147,444,c),
(166,428,o),
(215,342,o),
(226,320,c),
(156,305,o),
(81,290,o),
(25,245,cs),
(16,238,o),
(1,222,o),
(12,222,cs),
(23,222,o),
(33,227,o),
(43,230,cs),
(69,239,o),
(215,266,o),
(243,271,c),
(249,273,o),
(249,273,o),
(251,268,cs),
(292,176,o),
(330,84,o),
(368,-9,cs),
(369,-11,o),
(373,-12,o),
(375,-12,c),
(383,-14,o),
(410,-6,o),
(418,-2,cs)
);
}
);
width = 710;
}
);
note = t;
unicode = 116;
},
{
glyphname = u;
layers = (
{
layerId = m01;
shapes = (
{
closed = 1;
nodes = (
(454,6,o),
(504,28,o),
(515,34,cs),
(555,55,o),
(594,80,o),
(628,110,cs),
(633,114,o),
(646,129,o),
(648,135,cs),
(649,138,o),
(647,143,o),
(646,146,cs),
(606,255,o),
(564,364,o),
(523,472,cs),
(519,485,o),
(486,554,o),
(480,566,cs),
(478,570,o),
(476,574,o),
(473,575,cs),
(467,577,o),
(451,574,o),
(445,572,cs),
(443,571,o),
(428,570,o),
(426,569,cs),
(394,558,o),
(363,542,o),
(336,523,cs),
(325,515,o),
(288,479,o),
(281,467,cs),
(279,464,o),
(280,459,o),
(281,455,cs),
(284,440,o),
(288,425,o),
(291,410,c),
(264,339,o),
(239,265,o),
(197,202,c),
(178,241,o),
(172,287,o),
(171,330,cs),
(170,388,o),
(168,445,o),
(167,502,cs),
(166,514,o),
(146,506,o),
(135,502,cs),
(113,493,o),
(53,461,o),
(41,441,cs),
(38,436,o),
(36,431,o),
(36,426,cs),
(34,369,o),
(32,311,o),
(30,254,cs),
(29,227,o),
(33,141,o),
(47,119,cs),
(54,109,o),
(63,101,o),
(73,96,cs),
(96,84,o),
(149,107,o),
(172,119,cs),
(203,134,o),
(232,153,o),
(257,177,cs),
(286,205,o),
(308,239,o),
(325,275,c),
(351,185,o),
(376,95,o),
(407,7,c),
(406,8,o),
(408,4,o),
(409,3,cs),
(414,-4,o),
(433,1,o),
(442,3,cs)
);
}
);
width = 663;
}
);
note = u;
unicode = (117,249,250,251,252);
},
{
glyphname = v;
layers = (
{
layerId = m01;
shapes = (
{
closed = 1;
nodes = (
(496,-90,o),
(517,-71,o),
(520,-62,cs),
(522,-51,o),
(487,-33,o),
(497,-28,cs),
(541,-8,o),
(582,16,o),
(620,45,cs),
(632,54,o),
(664,79,o),
(665,94,cs),
(665,100,o),
(668,114,o),
(665,118,cs),
(637,150,o),
(610,182,o),
(587,218,cs),
(554,269,o),
(528,325,o),
(504,381,cs),
(482,433,o),
(459,486,o),
(451,542,cs),
(448,565,o),
(453,590,o),
(462,612,c),
(462,614,o),
(463,619,o),
(462,620,c),
(459,626,o),
(447,625,o),
(440,624,cs),
(427,621,o),
(414,618,o),
(402,612,cs),
(354,592,o),
(307,568,o),
(265,537,cs),
(244,522,o),
(220,505,o),
(207,481,cs),
(184,434,o),
(194,375,o),
(207,324,cs),
(233,223,o),
(273,124,o),
(331,37,cs),
(335,31,o),
(323,29,o),
(316,26,cs),
(313,24,o),
(311,27,o),
(310,30,cs),
(289,72,o),
(264,112,o),
(243,153,cs),
(229,181,o),
(164,317,o),
(144,341,c),
(143,343,o),
(129,350,o),
(128,352,c),
(129,351,o),
(128,355,o),
(127,356,c),
(117,361,o),
(92,349,o),
(82,343,cs),
(71,338,o),
(32,313,o),
(25,303,cs),
(22,299,o),
(19,280,o),
(18,275,cs),
(17,271,o),
(20,258,o),
(21,255,cs),
(34,187,o),
(63,124,o),
(84,58,cs),
(88,48,o),
(106,-13,o),
(109,-23,cs),
(112,-34,o),
(134,-96,o),
(137,-107,c),
(139,-110,o),
(141,-114,o),
(144,-115,cs),
(160,-120,o),
(202,-99,o),
(217,-92,c),
(233,-116,o),
(257,-133,o),
(278,-153,cs),
(285,-159,o),
(305,-181,o),
(315,-182,cs),
(357,-185,o),
(456,-122,o),
(488,-96,cs)
);
}
);
width = 678;
}
);
note = v;
unicode = 118;
},
{
glyphname = w;
layers = (
{
layerId = m01;
shapes = (
{
closed = 1;
nodes = (
(526,-201,o),
(634,-140,o),
(656,-102,cs),
(661,-94,o),
(654,-84,o),
(651,-76,cs),
(648,-66,o),
(644,-56,o),
(640,-47,c),
(658,-40,o),
(676,-33,o),
(692,-23,cs),
(721,-8,o),
(802,40,o),
(813,71,c),
(804,223,o),
(784,375,o),
(772,527,c),
(793,537,o),
(813,549,o),
(831,564,cs),
(840,572,o),
(855,585,o),
(844,587,cs),
(837,589,o),
(815,582,o),
(809,580,cs),
(773,571,o),
(736,559,o),
(705,540,cs),
(681,526,o),
(657,509,o),
(641,486,cs),
(630,470,o),
(619,409,o),
(617,390,cs),
(609,280,o),
(602,169,o),
(596,58,c),
(573,107,o),
(433,408,o),
(410,457,cs),
(406,466,o),
(394,485,o),
(384,486,cs),
(361,489,o),
(306,455,o),
(288,441,cs),
(280,435,o),
(259,420,o),
(257,410,c),
(257,406,o),
(261,394,o),
(258,391,cs),
(247,383,o),
(236,373,o),
(233,361,cs),
(224,317,o),
(215,274,o),
(206,231,c),
(199,249,o),
(171,321,o),
(158,336,cs),
(150,345,o),
(133,347,o),
(121,343,cs),
(92,332,o),
(21,298,o),
(10,269,cs),
(4,253,o),
(28,262,o),
(44,268,c),
(52,264,o),
(60,259,o),
(66,252,cs),
(72,245,o),
(87,212,o),
(90,203,cs),
(113,141,o),
(126,76,o),
(140,12,cs),
(141,6,o),
(146,-18,o),
(148,-23,cs),
(152,-31,o),
(164,-29,o),
(173,-26,cs),
(203,-18,o),
(283,28,o),
(301,53,cs),
(317,76,o),
(323,104,o),
(330,131,c),
(339,99,o),
(395,-98,o),
(405,-131,cs),
(408,-142,o),
(432,-206,o),
(436,-217,c),
(435,-216,o),
(437,-220,o),
(438,-221,cs),
(447,-230,o),
(472,-219,o),
(484,-215,cs)
);
}
);
width = 866;
}
);
note = w;
unicode = 119;
},
{
glyphname = x;
layers = (
{
layerId = m01;
shapes = (
{
closed = 1;
nodes = (
(469,-67,o),
(506,-45,o),
(540,-19,cs),
(548,-13,o),
(572,6,o),
(574,16,cs),
(575,19,o),
(573,23,o),
(571,25,c),
(500,128,o),
(430,231,o),
(356,332,c),
(384,358,o),
(558,513,o),
(587,538,cs),
(598,548,o),
(620,563,o),
(605,564,cs),
(575,565,o),
(516,507,o),
(494,487,cs),
(443,443,o),
(392,399,o),
(340,354,c),
(322,379,o),
(226,511,o),
(211,537,cs),
(209,541,o),
(201,552,o),
(202,556,cs),
(202,560,o),
(205,564,o),
(202,566,c),
(190,571,o),
(160,557,o),
(149,552,cs),
(128,542,o),
(62,505,o),
(50,485,cs),
(47,479,o),
(44,472,o),
(45,466,cs),
(47,446,o),
(85,379,o),
(95,362,cs),
(106,344,o),
(174,233,o),
(184,215,c),
(174,205,o),
(114,146,o),
(104,136,cs),
(89,121,o),
(31,55,o),
(22,36,cs),
(16,23,o),
(11,6,o),
(16,-8,cs),
(19,-18,o),
(28,-25,o),
(37,-32,cs),
(44,-38,o),
(62,-29,o),
(70,-26,cs),
(89,-17,o),
(106,-7,o),
(122,5,cs),
(130,12,o),
(141,20,o),
(134,26,cs),
(125,33,o),
(117,40,o),
(113,50,cs),
(108,64,o),
(123,95,o),
(130,107,cs),
(138,121,o),
(190,175,o),
(201,187,c),
(261,97,o),
(320,7,o),
(380,-83,c),
(383,-86,o),
(385,-90,o),
(389,-91,cs),
(397,-93,o),
(421,-85,o),
(429,-82,cs)
);
}
);
width = 619;
}
);
note = x;
unicode = 120;
},
{
glyphname = y;
layers = (
{
layerId = m01;
shapes = (
{
closed = 1;
nodes = (
(321,-89,o),
(333,-84,o),
(344,-80,cs),
(387,-65,o),
(426,-41,o),
(463,-15,cs),
(479,-4,o),
(516,22,o),
(516,41,cs),
(515,136,o),
(514,231,o),
(512,325,cs),
(512,356,o),
(490,519,o),
(485,549,c),
(485,553,o),
(479,554,o),
(477,558,cs),
(476,562,o),
(477,582,o),
(476,586,cs),
(475,594,o),
(458,626,o),
(454,633,cs),
(451,640,o),
(440,638,o),
(433,635,c),
(411,629,o),
(349,595,o),
(336,576,cs),
(327,565,o),
(313,509,o),
(309,495,cs),
(308,491,o),
(311,467,o),
(309,463,cs),
(306,457,o),
(302,452,o),
(301,446,cs),
(297,401,o),
(293,357,o),
(291,312,c),
(273,303,o),
(256,294,o),
(239,285,c),
(239,294,o),
(237,340,o),
(235,349,cs),
(222,407,o),
(209,466,o),
(195,524,cs),
(194,531,o),
(193,539,o),
(187,542,cs),
(168,549,o),
(123,524,o),
(105,515,cs),
(85,504,o),
(33,470,o),
(26,449,c),
(24,446,o),
(26,430,o),
(26,426,cs),
(32,363,o),
(37,301,o),
(43,238,cs),
(44,228,o),
(58,179,o),
(61,169,cs),
(63,162,o),
(72,164,o),
(79,165,cs),
(108,172,o),
(134,185,o),
(160,200,cs),
(184,214,o),
(208,229,o),
(228,248,cs),
(245,265,o),
(268,274,o),
(289,286,c),
(288,274,o),
(284,206,o),
(284,194,cs),
(287,102,o),
(290,10,o),
(293,-82,cs),
(293,-90,o),
(301,-91,o),
(310,-90,cs)
);
}
);
width = 556;
}
);
note = y;
unicode = (121,253,255);
},
{
glyphname = z;
layers = (
{
layerId = m01;
shapes = (
{
closed = 1;
nodes = (
(396,28,o),
(448,61,o),
(494,96,cs),
(506,104,o),
(528,121,o),
(525,135,cs),
(520,155,o),
(470,178,o),
(452,188,cs),
(410,212,o),
(366,237,o),
(319,245,c),
(332,260,o),
(410,344,o),
(424,358,cs),
(443,376,o),
(469,387,o),
(489,404,cs),
(498,412,o),
(509,421,o),
(512,432,c),
(512,434,o),
(517,440,o),
(517,441,c),
(519,447,o),
(514,450,o),
(508,451,cs),
(473,453,o),
(439,462,o),
(408,477,cs),
(359,502,o),
(315,535,o),
(269,565,cs),
(267,566,o),
(269,572,o),
(265,574,cs),
(260,577,o),
(238,588,o),
(232,589,cs),
(217,592,o),
(175,572,o),
(161,565,cs),
(141,554,o),
(121,543,o),
(103,530,cs),
(88,519,o),
(72,507,o),
(63,491,cs),
(61,488,o),
(65,483,o),
(68,481,c),
(109,441,o),
(149,399,o),
(196,367,cs),
(216,353,o),
(237,340,o),
(260,333,cs),
(279,327,o),
(299,325,o),
(318,325,c),
(290,298,o),
(263,268,o),
(237,239,c),
(194,229,o),
(153,210,o),
(115,189,cs),
(80,170,o),
(43,151,o),
(16,121,cs),
(12,117,o),
(10,109,o),
(16,107,cs),
(32,103,o),
(77,129,o),
(93,135,cs),
(107,141,o),
(145,135,o),
(159,127,c),
(186,122,o),
(209,103,o),
(231,87,cs),
(243,78,o),
(297,28,o),
(311,22,cs),
(316,19,o),
(334,15,o),
(339,16,cs)
);
}
